<?xml version="1.0" encoding="utf-8"?>
<!-- Generator: Adobe Illustrator 26.0.1, SVG Export Plug-In . SVG Version: 6.00 Build 0)  -->
<svg version="1.1" id="Layer_1" xmlns="http://www.w3.org/2000/svg" xmlns:xlink="http://www.w3.org/1999/xlink" x="0px" y="0px"
	 viewBox="0 0 1003.8 525.2" style="enable-background:new 0 0 1003.8 525.2;" xml:space="preserve">
<style type="text/css">
	.st0{display:none;fill:#808184;}
	.st1{display:none;fill:#EC1C24;}
	.st2{fill:#00A8AB;}
	.st3{fill:#00529A;}
</style>
<g>
	<polygon class="st0" points="515.1,157.9 517,157.9 517,160.5 515.1,160.5 	"/>
	<polygon class="st0" points="510.9,157.9 512.8,157.9 512.8,160.5 510.9,160.5 	"/>
	<polygon class="st0" points="519.3,157.9 521.2,157.9 521.2,160.5 519.3,160.5 	"/>
	<polygon class="st0" points="523.5,157.9 525.4,157.9 525.4,160.5 523.5,160.5 	"/>
	<polygon class="st0" points="515.1,162.2 517,162.2 517,164.7 515.1,164.7 	"/>
	<polygon class="st0" points="510.9,162.2 512.8,162.2 512.8,164.7 510.9,164.7 	"/>
	<polygon class="st0" points="519.3,162.2 521.2,162.2 521.2,164.7 519.3,164.7 	"/>
	<polygon class="st0" points="523.5,162.2 525.4,162.2 525.4,164.7 523.5,164.7 	"/>
	<polygon class="st0" points="515.1,153.6 517,153.6 517,156.2 515.1,156.2 	"/>
	<polygon class="st1" points="510.9,149.4 512.8,149.4 512.8,156.2 510.9,156.2 	"/>
	<polygon class="st0" points="519.3,153.6 521.2,153.6 521.2,156.2 519.3,156.2 	"/>
	<polygon class="st0" points="515.1,149.4 517,149.4 517,152 515.1,152 	"/>
	<polygon class="st0" points="519.3,149.4 521.2,149.4 521.2,152 519.3,152 	"/>
	<polygon class="st1" points="515.1,144.1 517,144.1 517,147.7 515.1,147.7 	"/>
	<polygon class="st0" points="515.1,166.4 517,166.4 517,170.1 515.1,170.1 	"/>
	<polygon class="st0" points="510.9,166.4 512.8,166.4 512.8,170.6 510.9,170.6 	"/>
	<polygon class="st0" points="519.3,166.4 521.2,166.4 521.2,169.6 519.3,169.6 	"/>
	<polygon class="st1" points="506.7,157.9 508.6,157.9 508.6,171.4 506.7,171.4 	"/>
	<g>
		<polygon class="st0" points="523.5,166.4 525.4,166.4 525.4,169.1 523.5,169.1 		"/>
	</g>
	<path class="st1" d="M525.8,173.2c-0.3,0.3-0.6,0-0.9,0.2c0,0,0-0.2-0.1-0.1c-0.3,0.3-0.7,0.1-1.1-0.1v-0.1c-0.1,0-0.2,0.1-0.2,0.1
		v-0.1c0,0.1-0.1,0-0.2,0.1l-0.1-0.2v0.1c-0.1,0.3-0.3,0-0.4,0.1v-0.1c-0.2,0.2-0.5,0.1-0.8,0.2v-0.2c0,0.1-0.1,0.2-0.2,0.2
		c0-0.1-0.1,0.1-0.2,0l0,0c-0.1,0.1-0.1-0.1-0.1,0.1v-0.1c0,0.2-0.1-0.1-0.1,0l0,0h-0.1l0,0c-0.1,0-0.2-0.1-0.2,0.1
		c0-0.1,0.1,0,0-0.2c-0.4,0.1-0.7,0.1-1.1,0.1l-0.1-0.1l-0.2,0.1v-0.1c-0.1-0.1-0.1,0.2-0.1,0.1v-0.1c-0.1,0.1-0.1,0.1-0.2,0.1v-0.1
		c-0.1,0.1-0.1,0-0.2,0.1v-0.1c-0.1-0.1,0,0.2-0.1,0.1v-0.1c-0.1,0.2-0.2,0.1-0.3,0.2l0,0h-0.3c0,0,0-0.2-0.1-0.2
		c0,0.2-0.2,0.1-0.1,0.3c-0.1,0-0.2-0.1-0.3,0c0-0.1,0-0.2,0-0.2l-0.1-0.1c0-0.1,0.1,0,0-0.1l-0.2,0.1c-0.1,0.1-0.1,0.3-0.2,0.3
		v-0.2l-0.1,0.3c0,0,0-0.1-0.1-0.1v0.1c0,0-0.1,0-0.2-0.1v-0.1l-0.1,0.1l0,0c0,0-0.1,0.1-0.1,0.2v-0.1l-0.2,0.1v-0.1l-0.3,0.2
		c0,0.1,0-0.1,0-0.1c-0.1-0.1-0.3,0.2-0.4,0v0.1c-0.1,0-0.1-0.1-0.1-0.1c0-0.1,0,0-0.1,0l0,0c-0.1,0.1-0.3,0.2-0.4,0.1l-0.1,0.2
		v-0.1c0-0.1-0.1,0-0.1-0.1c-0.1,0.1,0.2-0.1,0.2,0c0-0.1-0.1,0.2-0.1,0c-0.1,0-0.1,0.1-0.2,0v-0.1l-0.1,0.1l0,0c0,0.1-0.1,0,0,0.1
		c0-0.1-0.1,0.1-0.1-0.1v-0.1l-0.1,0.2v-0.1c0,0.2-0.1,0-0.1,0.2c-0.1-0.1-0.2,0-0.2-0.1c-0.1,0.1-0.1,0.1-0.2,0.1v-0.1
		c0-0.1-0.1,0-0.1,0s-0.1-0.1-0.2-0.2v0.2c-0.1-0.2-0.2,0.1-0.2,0c0,0,0.1-0.1,0-0.2c-0.1-0.2-0.1,0.2-0.2,0.1v0.2
		c-0.1-0.1-0.1,0.1-0.1-0.1c0,0.1-0.1,0-0.1,0.1c-0.2-0.1-0.3,0.1-0.5-0.2l-0.1,0.1c0,0.1,0-0.1,0.1,0v0.1c0,0-0.1,0-0.1-0.2
		c-0.1-0.1-0.1,0.3-0.2,0.2l-0.1-0.1l-0.1,0.1c-0.1,0-0.1-0.1-0.1-0.3l-0.1,0.1l-0.1-0.1c0.1,0.1,0,0.1,0,0.1l0,0H512l0.1,0.1
		L512,174c0-0.1-0.1-0.1-0.1-0.1v0.1c0-0.1-0.1,0,0-0.1h0.1c0,0,0-0.1-0.1-0.1c0,0.1,0,0.2,0,0.2v-0.1h-0.1v0.1l0,0
		c0,0.1-0.1,0.1-0.1,0.2l-0.1-0.1l0,0c-0.1,0-0.1,0-0.1,0.1l0,0l-0.1,0.1c-0.1-0.1-0.1-0.4-0.1-0.2c-0.1,0-0.1,0.2,0,0.3
		c-0.1,0-0.2,0.1-0.3,0v0.1c-0.2,0-0.3,0.2-0.5,0v-0.2c0,0.1-0.1-0.1,0,0.1l0.1,0.2c-0.1,0.1-0.2,0.1-0.3,0v0.1
		c0-0.1-0.1-0.1-0.1-0.1v0.1l-0.1-0.1c0,0,0,0.2-0.1,0.1v-0.1c0,0.1-0.1,0.2-0.2,0.2l-0.1-0.1v0.1l-0.2-0.2
		c-0.1,0.3-0.3,0.4-0.5,0.4v-0.1c-0.1,0,0,0.1,0,0.1l-0.1-0.2c-0.1,0-0.1,0.1-0.1,0.2s0-0.1,0,0c0,0-0.1,0-0.1,0.1l-0.1-0.2v0.1
		c-0.1-0.1,0-0.3-0.1-0.5l0,0c-0.1-0.1,0.1-0.2,0-0.2c0,0.1,0,0.3,0,0.3c-0.1,0.1,0,0.3-0.1,0.3c0-0.1,0.1,0,0-0.1
		c-0.1-0.1-0.1,0.1-0.1,0.1v0.2l-0.1-0.1c0,0.1,0,0.2,0,0.2c0,0.2-0.1,0-0.1,0.1c-0.1-0.1,0-0.3-0.1-0.3c0,0.1,0,0.2,0,0.3l-0.1-0.2
		c-0.1-0.1,0,0.2-0.1,0v0.1l-0.1-0.1c0,0-0.1,0.2-0.1,0c0,0-0.1,0,0,0.1c0.1,0.1,0-0.1,0.1,0c-0.1-0.1-0.1,0-0.1,0.1v-0.1v0.1v-0.1
		v0.1c-0.1,0.1-0.1-0.2-0.1-0.1v-0.1h-0.1v0.3c0,0.1-0.1-0.1-0.1,0v-0.1c0,0-0.1-0.1-0.2-0.1v0.2l-0.1-0.1v0.2l-0.2-0.2v-0.2l0,0
		c0-0.1-0.1-0.1-0.1-0.2l-0.1,0.1c0.2,0.2,0,0.3,0.1,0.5c-0.1,0.1-0.3-0.4-0.2-0.1c0,0,0.1,0.2,0.1,0.1c-0.1,0,0,0.2-0.1,0.2
		c0-0.1-0.1-0.2-0.1-0.3c0,0.1,0.1,0,0.1,0c-0.1-0.1-0.1-0.2-0.1-0.2s-0.1,0.1,0,0.2c0,0.1,0.1,0,0.1,0.1c-0.1,0.1-0.1-0.1-0.1,0.1
		l0.1,0.1v0.1v-0.1c-0.1,0,0,0.1-0.1,0.2l-0.1-0.1c0-0.1,0.1,0,0-0.2l-0.1,0.1v-0.1c0,0-0.2-0.2-0.2-0.1l0.1,0.1l-0.1,0.2
		c-0.1-0.1-0.1,0-0.1-0.1c0.1,0.1,0.2,0,0.2-0.1c-0.1-0.1,0.1,0,0-0.2c-0.1,0-0.2-0.1-0.2-0.2v0.1l0.1,0.2c-0.1,0-0.1,0.1-0.1,0.2
		l-0.1-0.2l-0.3,0.1c0.1,0.1-0.1,0.1,0.1,0.2c0.1,0,0.2,0.1,0.2,0.2l-0.1-0.1c0,0.1-0.1-0.1-0.1,0.1c0-0.1-0.1-0.2-0.2-0.3
		c0,0.1-0.1-0.1-0.1,0l-0.1,0.3c-0.2,0-0.2,0.2-0.2,0.2c-0.1,0-0.2-0.2-0.2-0.1c0,0,0.2,0.1,0,0.1l0,0c0,0-0.2,0-0.1,0.2l-0.1-0.1
		v0.1l-0.1-0.1c-0.1,0-0.1,0.1-0.1,0.2h0.1c0,0.1-0.1,0.1-0.1,0.2h-0.1v0.1c-0.1,0-0.2,0-0.1,0l-0.2-0.2l0.2,0.1
		c0.1,0,0.1-0.1,0-0.1v0.1c-0.1,0-0.1-0.1-0.2-0.2v0.1v-0.2l0.1,0.1c-0.1-0.1-0.1-0.2,0-0.2c0.2,0.1,0-0.2,0.2-0.2l0.1,0.3h0.1
		c0-0.1-0.1-0.2-0.1-0.3l0.1,0.1c0-0.1-0.1-0.2,0-0.2l0.4-0.2l0.1,0.1c-0.1-0.2,0.1-0.2,0.2-0.3c0.2,0,0.2-0.2,0.4-0.1l0.6-0.4v0.1
		c0-0.1,0.1,0.1,0.1,0c-0.1-0.1,0-0.2,0-0.2c0.1,0,0.2-0.1,0.3-0.3v0.1c0-0.2,0.2-0.1,0.3-0.1l0.1,0.1c0-0.2,0.1-0.2,0.1-0.3h0.3
		c0.2-0.3,0.5-0.2,0.8-0.5v0.1c0.2-0.3,0.6-0.2,0.8-0.4v0.2c0.1,0,0.2-0.1,0.1-0.2c0.1,0,0.2-0.1,0.2,0c0.1,0,0.1-0.1,0.1-0.1h0.4
		l0,0v0.1c0-0.1,0.2,0,0.1-0.2c0.2,0.1,0.3-0.2,0.5,0v-0.1c0.1,0,0.3,0.1,0.4-0.1v0.1v-0.1c0.2-0.2,0.5,0,0.7,0
		c0.3-0.2,0.7-0.1,1.1-0.2l0,0c0.1-0.2,0.3,0.1,0.4-0.1l0.1,0.1c0.1-0.1,0.3,0.1,0.4-0.1l0,0c0.1,0.1,0.2-0.1,0.4,0v0.1
		c0.1,0.1,0.1-0.2,0.2,0V173c0.3,0,0.6-0.1,1-0.2c0.2,0.1,0,0.4,0.2,0.2l0,0c0.1-0.1,0.1,0.2,0.2,0.1c0-0.1,0-0.1,0-0.2
		c0.1,0.1,0.2,0.2,0.3,0.1v0.1c0.1-0.2,0.3-0.1,0.4-0.3l2.1-0.3c0.7,0,1.4-0.1,2.1,0c0.2,0.2,0.2,0.2,0.4,0.1v0.1
		c0-0.1,0.1,0,0.1-0.1h0.8v0.1l0.1-0.1l0,0v-0.1c0.7-0.1,1.3,0.2,2,0.2c0.2,0.1,0.4,0,0.5,0c0.5,0.2,0.9,0.4,1.5,0.3
		C526.1,172.7,526,173.1,525.8,173.2L525.8,173.2L525.8,173.2z"/>
	<path class="st1" d="M507.2,175.9C507.3,175.9,507.3,175.8,507.2,175.9C507.3,175.8,507.3,176,507.2,175.9L507.2,175.9L507.2,175.9
		z"/>
	<polygon class="st1" points="507.5,175.7 507.6,175.6 507.6,175.7 	"/>
	<polygon class="st1" points="513.9,174 513.9,174.1 513.9,174 	"/>
	<path class="st1" d="M516.9,173.8C516.9,173.7,516.9,173.8,516.9,173.8L516.9,173.8L516.9,173.8L516.9,173.8z"/>
	<polygon class="st1" points="518.4,173.4 518.4,173.4 518.4,173.3 	"/>
	<path class="st1" d="M419.8,148.7c0.1,0.1,0.2,0.2,0.4,0.2c0.1,0.1,0.3,0.1,0.4,0.1c0.2,0,0.3,0,0.4-0.1c0.1-0.1,0.3-0.1,0.4-0.2
		c0.1-0.1,0.2-0.2,0.2-0.4c0.1-0.1,0.1-0.3,0.1-0.4c0-0.3-0.1-0.6-0.3-0.8c-0.2-0.2-0.5-0.3-0.8-0.3s-0.6,0.1-0.8,0.3
		c-0.2,0.2-0.3,0.5-0.3,0.8c0,0.2,0,0.3,0.1,0.4C419.7,148.4,419.7,148.5,419.8,148.7L419.8,148.7z"/>
	<path class="st1" d="M422.7,148.7c0.1,0.1,0.2,0.2,0.4,0.2c0.1,0.1,0.3,0.1,0.4,0.1c0.2,0,0.3,0,0.4-0.1c0.1-0.1,0.3-0.1,0.4-0.2
		c0.1-0.1,0.2-0.2,0.2-0.4c0.1-0.1,0.1-0.3,0.1-0.4c0-0.3-0.1-0.6-0.3-0.8c-0.2-0.2-0.5-0.3-0.8-0.3s-0.6,0.1-0.8,0.3
		c-0.2,0.2-0.3,0.5-0.3,0.8c0,0.2,0,0.3,0.1,0.4C422.6,148.4,422.6,148.5,422.7,148.7L422.7,148.7z"/>
	<path class="st1" d="M389.1,159.8c-0.1-0.1-0.2-0.2-0.3-0.2c-0.1-0.1-0.3-0.1-0.4-0.1c-0.3,0-0.6,0.1-0.8,0.3
		c-0.2,0.2-0.3,0.5-0.3,0.8c0,0.1,0,0.3,0.1,0.4s0.1,0.2,0.2,0.3c0.1,0.1,0.2,0.2,0.3,0.2c0.1,0.1,0.3,0.1,0.4,0.1
		c0.2,0,0.3,0,0.4-0.1s0.2-0.1,0.3-0.2c0.1-0.1,0.2-0.2,0.2-0.3c0.1-0.1,0.1-0.3,0.1-0.4c0-0.2,0-0.3-0.1-0.4
		C389.3,160,389.2,159.9,389.1,159.8L389.1,159.8z"/>
	<path class="st1" d="M392.2,159.8c-0.1-0.1-0.2-0.2-0.3-0.2c-0.1-0.1-0.3-0.1-0.4-0.1c-0.3,0-0.6,0.1-0.8,0.3
		c-0.2,0.2-0.3,0.5-0.3,0.8c0,0.1,0,0.3,0.1,0.4s0.1,0.2,0.2,0.3c0.1,0.1,0.2,0.2,0.3,0.2c0.1,0.1,0.3,0.1,0.4,0.1
		c0.2,0,0.3,0,0.4-0.1s0.2-0.1,0.3-0.2c0.1-0.1,0.2-0.2,0.2-0.3c0.1-0.1,0.1-0.3,0.1-0.4c0-0.2,0-0.3-0.1-0.4
		C392.3,160,392.3,159.9,392.2,159.8L392.2,159.8z"/>
	<path class="st1" d="M415.7,153.6c-0.2,0.3-0.4,0.6-0.7,0.9c-0.3,0.3-0.6,0.5-1,0.7s-0.8,0.4-1.3,0.5c-0.2-0.3-0.4-0.6-0.6-0.9
		c-0.3-0.3-0.6-0.6-0.9-1c-0.3-0.3-0.7-0.6-1-0.9c-0.3-0.3-0.7-0.6-1-0.8c0.5-0.1,1-0.1,1.6-0.2c0.6,0,1.2-0.1,1.8-0.1
		c0.4,0,0.8,0,1.1,0c0.4,0,0.7,0.1,1,0.1c0.3,0.1,0.6,0.1,0.8,0.2c0.2,0.1,0.3,0.1,0.4,0.2C415.9,152.9,415.8,153.2,415.7,153.6
		L415.7,153.6z M402.1,156.2c-0.2,0.3-0.4,0.6-0.7,0.8c-0.3,0.2-0.6,0.4-1,0.6c-0.4,0.1-0.8,0.2-1.2,0.2s-0.8-0.1-1.2-0.2
		c-0.4-0.1-0.7-0.3-1-0.6c-0.3-0.2-0.5-0.5-0.6-0.8c-0.2-0.3-0.2-0.7-0.2-1c0-0.4,0.1-0.7,0.2-1c0.2-0.3,0.4-0.6,0.7-0.8
		c0.3-0.2,0.6-0.4,1-0.6c0.4-0.1,0.8-0.2,1.2-0.2s0.8,0.1,1.2,0.2c0.4,0.1,0.7,0.3,1,0.6c0.3,0.2,0.5,0.5,0.7,0.8s0.2,0.7,0.2,1
		S402.3,155.9,402.1,156.2L402.1,156.2z M432.1,145.3v10.5h-1.9H430h-0.6v-10.5h-2.3v10.5h-2H425h-1.5v-5.3h-2.3v5.3h-1.9h-0.1H417
		c0.6-0.5,0.6-0.7,0.9-1.3s0.5-1.4,0.5-2.2c0-0.5-0.2-0.9-0.5-1.2c-0.3-0.3-0.7-0.6-1.2-0.8s-1.1-0.3-1.8-0.4
		c-0.7-0.1-1.4-0.1-2.1-0.1c-0.6,0-1.1,0-1.7,0.1c-0.6,0-1.1,0.1-1.7,0.2c-0.5,0.1-1,0.2-1.5,0.3c-0.4,0.1-0.8,0.2-1.1,0.3v2
		c0.1,0.1,0.3,0.2,0.5,0.4c0.2,0.2,0.4,0.3,0.7,0.5c0.2,0.2,0.5,0.4,0.7,0.6c0.3,0.2,0.5,0.4,0.8,0.7c0.2,0.2,0.1,0,0.3,0.3
		c0.2,0.2,0.4,0.4,0.6,0.6h-4.6h-0.2h-1.2c0-0.2,0-0.3,0.1-0.5c0-0.2,0-0.4,0-0.5c0-0.7-0.1-0.9-0.4-1.4c-0.3-0.6-0.6-1.1-1.1-1.5
		c-0.5-0.4-1-0.8-1.6-1c-0.6-0.2-1.3-0.4-2-0.4s-1.4,0.1-2,0.4c-0.6,0.2-1.2,0.6-1.6,1c-0.5,0.4-0.8,0.9-1.1,1.5
		c-0.3,0.6-0.4,1.2-0.4,1.8c0,0.3,0,0.2,0,0.6h-1.1H393h-1.9v-5.3h-2.3v5.3h-1.5h-0.2h-1.4c0.1-0.5,0.1-0.6,0.1-1.1
		c0-0.4,0-0.3,0-0.7v-3.1h-2.3v3.2c0,0.5,0,0.9-0.1,1.3c0,0.4-0.1,0.8-0.3,1.3c-0.1,0.5-0.3,0.9-0.6,1.3c-0.2,0.4-0.5,0.7-0.8,1
		s-0.7,0.5-1.1,0.7s-0.9,0.2-1.4,0.2c-0.2,0-0.5,0-0.7-0.1c-0.2,0-0.5-0.1-0.8-0.2l-0.1,1.8c0.4,0.1,0.7,0.2,1.1,0.3
		c0.4,0.1,0.7,0.1,1,0.1c0.7,0,1.4-0.1,2.1-0.4c0.6-0.3,1.2-0.6,1.7-1.1c0.3-0.3,0.6-0.7,0.9-1c0.3-0.4,0.5-0.8,0.7-1.2h1.9h0.2h5.7
		h0.2h2.1c0.5,0.6,1.1,1,1.8,1.3c0.7,0.3,1.4,0.5,2.3,0.5c0.8,0,1.6-0.2,2.3-0.5c0.7-0.3,1.3-0.8,1.8-1.3h2.2h0.2h13.4h0.1h5.8h0.1
		h4.9h0.2h3.2c0.3,0,0.5-0.1,0.7-0.3s0.3-0.4,0.3-0.7v-11.8H432.1L432.1,145.3z"/>
	<path class="st1" d="M455.7,159.8c-0.1-0.1-0.2-0.2-0.4-0.2c-0.1-0.1-0.3-0.1-0.4-0.1c-0.3,0-0.6,0.1-0.8,0.3
		c-0.2,0.2-0.3,0.5-0.3,0.8c0,0.2,0,0.3,0.1,0.4s0.1,0.3,0.2,0.4c0.1,0.1,0.2,0.2,0.4,0.2c0.1,0.1,0.3,0.1,0.4,0.1
		c0.2,0,0.3,0,0.4-0.1c0.1-0.1,0.3-0.1,0.4-0.2c0.1-0.1,0.2-0.2,0.2-0.4c0.1-0.1,0.1-0.3,0.1-0.4c0-0.2,0-0.3-0.1-0.4
		C455.9,160,455.8,159.9,455.7,159.8L455.7,159.8z"/>
	<path class="st1" d="M458.8,159.8c-0.1-0.1-0.2-0.2-0.4-0.2c-0.1-0.1-0.3-0.1-0.4-0.1c-0.3,0-0.6,0.1-0.8,0.3
		c-0.2,0.2-0.3,0.5-0.3,0.8c0,0.2,0,0.3,0.1,0.4s0.1,0.3,0.2,0.4c0.1,0.1,0.2,0.2,0.4,0.2c0.1,0.1,0.3,0.1,0.4,0.1
		c0.2,0,0.3,0,0.4-0.1c0.1-0.1,0.3-0.1,0.4-0.2c0.1-0.1,0.2-0.2,0.2-0.4c0.1-0.1,0.1-0.3,0.1-0.4c0-0.2,0-0.3-0.1-0.4
		C459,160,458.9,159.9,458.8,159.8L458.8,159.8z"/>
	<path class="st1" d="M442.6,155.8c0.3-2.6,1.6-3.6,3.8-3.7c0.5,0,0.9,0.1,1.3,0.3c0.4,0.2,0.8,0.4,1.2,0.8c0.3,0.3,0.6,0.8,0.9,1.3
		c0.2,0.5,0.4,0.7,0.5,1.4L442.6,155.8L442.6,155.8z M492.8,145.3v10.5h-1.9h-0.2h-1.3c-0.1-0.6-0.2-1.1-0.4-1.6
		c-0.2-0.5-0.5-0.9-0.8-1.3c-0.3-0.4-0.7-0.8-1.2-1.1s-0.9-0.6-1.5-0.8c-0.5-0.2-1.1-0.4-1.7-0.5s-1.2-0.2-1.8-0.3
		c-0.6,0-1.3,0-1.9,0c-0.6,0.1-1.2,0.2-1.8,0.3l0.1,2.3c0.6-0.2,1.1-0.3,1.7-0.4c0.6-0.1,1.2-0.1,1.8,0c0.6,0,1.2,0.1,1.8,0.3
		c0.6,0.1,1.2,0.4,1.7,0.7c0.5,0.3,0.9,0.7,1.3,1.1s0.5,0.4,0.6,1.2h-11.1H476h-1c0-0.3-0.1-0.6-0.2-1c-0.1-0.4-0.2-0.8-0.4-1.2
		c-0.2-0.4-0.4-0.8-0.8-1.2c-0.3-0.4-0.7-0.7-1.2-1s-1.1-0.5-1.8-0.7c-0.7-0.2-1.5-0.3-2.5-0.3H464c0.5-0.7,0.5-0.7,1.1-1.2
		s1.3-0.7,2-1c0.5-0.1,1-0.3,1.4-0.3c0.5-0.1,1-0.1,1.4-0.2c0.5,0,0.9-0.1,1.3-0.1s0.8,0,1.1,0v-2.3c-0.4,0-0.8,0-1.2,0
		s-0.9,0-1.4,0.1c-0.5,0-1,0.1-1.6,0.2c-0.5,0.1-1.1,0.2-1.6,0.4c-0.5,0.2-1.1,0.4-1.6,0.7c-0.5,0.3-1,0.6-1.5,1
		c-0.5,0.4-0.9,0.8-1.3,1.3s-0.8,1-1,1.7c-0.1,0.5-0.1,0.8-0.1,1c0,0.2,0.1,0.4,0.2,0.5c0.1,0.2,0.3,0.3,0.5,0.4s0.4,0.1,0.7,0.1
		l0,0h5.6c0.7,0,1.2,0.1,1.7,0.2c0.5,0.1,0.7,0.3,1.1,0.5s0.7,0.4,0.9,0.6c0.2,0.2,0.4,0.5,0.6,0.7c0.1,0.3,0.3,0.5,0.3,0.8
		c0.1,0.3,0,0.1,0.1,0.3h-13.2h-0.2h-1.9v-5.3h-2.1v5.3h-1.7h-0.2h-1.2c-0.1-1-0.3-1.5-0.7-2.3c-0.4-0.8-0.8-1.4-1.4-1.9
		c-0.5-0.5-1.2-0.9-1.8-1.2c-0.7-0.3-1.4-0.4-2-0.4c-0.7,0-1.4,0.1-2.1,0.4s-1.3,0.7-1.9,1.2c-0.6,0.6-1,1.2-1.4,2.1
		c-0.4,0.8-0.6,1.6-0.6,2.7c-0.4,0.2-0.7,0.4-0.9,0.6c-0.3,0.2-0.7,0.7-0.9,1c-0.2,0.3-0.3,0.6-0.4,0.9s-0.1,0.7-0.1,1.1
		c0,0.6,0.1,1.3,0.4,2c0.3,0.7,0.6,1.3,1.2,1.9l1.6-1.2c-0.4-0.4-0.6-0.9-0.8-1.4s-0.3-0.9-0.3-1.4c0-0.3,0-0.5,0.1-0.7
		c0.1-0.2,0.2-0.4,0.4-0.6c0.2-0.2,0.4-0.3,0.7-0.4c0.3-0.1,0.6-0.2,1.1-0.2h11.1h0.2h5.7h0.2H476h0.2h14.5h0.2h3.2
		c0.3,0,0.5-0.1,0.7-0.3c0.2-0.2,0.3-0.4,0.3-0.7v-11.8h-2.3L492.8,145.3L492.8,145.3z"/>
	<polygon class="st1" points="499.6,145.3 499.6,158.1 497.3,158.1 497.3,145.3 	"/>
	<polygon class="st0" points="381.5,170.9 377.7,170.9 377.7,165.9 381.5,165.9 381.5,166.9 379.3,166.9 379.3,167.8 381.4,167.8
		381.4,168.8 379.3,168.8 379.3,169.9 381.5,169.9 	"/>
	<polygon class="st0" points="386.4,170.9 382.5,170.9 382.5,165.9 384.1,165.9 384.1,169.7 386.4,169.7 	"/>
	<polygon class="st0" points="394.8,170.9 393.3,170.9 393.3,169 391,169 391,170.9 389.5,170.9 389.5,165.9 391,165.9 391,167.7
		393.3,167.7 393.3,165.9 394.8,165.9 	"/>
	<path class="st0" d="M399.2,169l-0.7-1.8l-0.7,1.8H399.2L399.2,169z M401.6,170.9H400l-0.4-1h-2.2l-0.4,1h-1.6l2.2-5h1.7
		L401.6,170.9L401.6,170.9z"/>
	<polygon class="st0" points="407.5,170.9 405.7,170.9 403.7,168.6 403.7,170.9 402.2,170.9 402.2,165.9 403.7,165.9 403.7,168.1
		405.6,165.9 407.2,165.9 405.3,168.3 	"/>
	<polygon class="st0" points="412,170.9 408.2,170.9 408.2,165.9 411.9,165.9 411.9,166.9 409.7,166.9 409.7,167.8 411.8,167.8
		411.8,168.8 409.7,168.8 409.7,169.9 412,169.9 	"/>
	<polygon class="st0" points="416.8,170.9 413,170.9 413,165.9 416.7,165.9 416.7,166.9 414.5,166.9 414.5,167.8 416.6,167.8
		416.6,168.8 414.5,168.8 414.5,169.9 416.8,169.9 	"/>
	<polygon class="st0" points="423.6,170.9 422.1,170.9 422.1,168 420.8,169.7 420.6,169.7 419.3,168 419.3,170.9 417.8,170.9
		417.8,165.9 419.2,165.9 420.7,167.8 422.3,165.9 423.6,165.9 	"/>
	<polygon class="st0" points="427.1,165.9 429.8,165.9 429.8,166.5 427.8,166.5 427.8,167.9 429.8,167.9 429.8,168.6 427.8,168.6
		427.8,170.9 427.1,170.9 	"/>
	<path class="st0" d="M433,166.5c-0.6,0-1.1,0.2-1.4,0.5c-0.4,0.4-0.6,0.8-0.6,1.4c0,0.5,0.2,1,0.6,1.4c0.4,0.4,0.8,0.5,1.4,0.5
		s1-0.2,1.4-0.6c0.4-0.4,0.6-0.8,0.6-1.4c0-0.5-0.2-1-0.6-1.4C434.1,166.7,433.6,166.5,433,166.5L433,166.5z M433,165.8
		c0.8,0,1.4,0.2,2,0.7c0.5,0.5,0.8,1.1,0.8,1.9c0,0.8-0.3,1.4-0.8,1.9s-1.2,0.7-2,0.7s-1.4-0.2-1.9-0.7s-0.8-1.1-0.8-1.8
		c0-0.8,0.3-1.4,0.8-1.9C431.6,166,432.2,165.8,433,165.8L433,165.8z"/>
	<path class="st0" d="M437.6,166.5h-0.2v1.6h0.3c0.4,0,0.6,0,0.8-0.1c0.1-0.1,0.2-0.2,0.3-0.3c0.1-0.1,0.1-0.3,0.1-0.4
		c0-0.2,0-0.3-0.1-0.4c-0.1-0.1-0.2-0.2-0.4-0.3C438.2,166.5,438,166.5,437.6,166.5L437.6,166.5z M436.7,170.9v-5h1.3
		c0.5,0,0.9,0.1,1.2,0.4s0.5,0.6,0.5,1c0,0.3-0.1,0.6-0.2,0.8c-0.1,0.2-0.4,0.4-0.6,0.5c0.2,0.1,0.3,0.3,0.5,0.4
		c0.2,0.2,0.4,0.5,0.7,1c0.2,0.3,0.3,0.5,0.4,0.6l0.3,0.4h-0.9l-0.2-0.3c0,0,0,0,0-0.1l-0.1-0.2l-0.2-0.4l-0.2-0.4
		c-0.1-0.2-0.3-0.4-0.4-0.5c-0.1-0.1-0.2-0.2-0.3-0.3c-0.1-0.1-0.3-0.1-0.5-0.1h-0.2v2.2H436.7L436.7,170.9z"/>
	<path class="st0" d="M447.6,169.8v0.8c-0.5,0.3-1.1,0.4-1.8,0.4c-0.6,0-1-0.1-1.4-0.3s-0.7-0.5-0.9-0.9c-0.2-0.4-0.3-0.8-0.3-1.3
		c0-0.7,0.3-1.4,0.8-1.9s1.2-0.8,1.9-0.8c0.5,0,1.1,0.1,1.8,0.4v0.8c-0.6-0.3-1.2-0.5-1.7-0.5c-0.6,0-1.1,0.2-1.4,0.5
		c-0.4,0.4-0.6,0.8-0.6,1.4c0,0.6,0.2,1,0.6,1.4c0.4,0.4,0.9,0.5,1.4,0.5C446.4,170.3,447,170.1,447.6,169.8L447.6,169.8z"/>
	<path class="st0" d="M451,166.5c-0.6,0-1.1,0.2-1.4,0.5c-0.4,0.4-0.6,0.8-0.6,1.4c0,0.5,0.2,1,0.6,1.4c0.4,0.4,0.8,0.5,1.4,0.5
		s1-0.2,1.4-0.6c0.4-0.4,0.6-0.8,0.6-1.4c0-0.5-0.2-1-0.6-1.4C452,166.7,451.5,166.5,451,166.5L451,166.5z M451,165.8
		c0.8,0,1.4,0.2,2,0.7c0.5,0.5,0.8,1.1,0.8,1.9c0,0.8-0.3,1.4-0.8,1.9s-1.2,0.7-2,0.7s-1.4-0.2-1.9-0.7s-0.8-1.1-0.8-1.8
		c0-0.8,0.3-1.4,0.8-1.9C449.5,166,450.2,165.8,451,165.8L451,165.8z"/>
	<polygon class="st0" points="458.6,165.9 459.3,165.9 459.3,170.9 458.7,170.9 455.3,167 455.3,170.9 454.6,170.9 454.6,165.9
		455.2,165.9 458.6,169.8 	"/>
	<path class="st0" d="M461.6,168.8l-0.6-0.3c-0.3-0.2-0.6-0.4-0.7-0.6c-0.1-0.2-0.2-0.4-0.2-0.7c0-0.4,0.1-0.7,0.4-1
		c0.3-0.2,0.6-0.4,1.1-0.4c0.4,0,0.8,0.1,1.2,0.4v0.8c-0.4-0.4-0.8-0.5-1.2-0.5c-0.2,0-0.4,0.1-0.6,0.2c-0.2,0.1-0.2,0.2-0.2,0.4
		c0,0.2,0.1,0.3,0.2,0.4s0.3,0.3,0.5,0.4l0.6,0.3c0.6,0.4,0.9,0.8,0.9,1.4c0,0.4-0.1,0.7-0.4,1c-0.3,0.3-0.6,0.4-1.1,0.4
		s-1-0.2-1.4-0.5v-0.9c0.4,0.5,0.8,0.7,1.4,0.7c0.2,0,0.4-0.1,0.6-0.2c0.2-0.1,0.2-0.3,0.2-0.5C462.3,169.4,462.1,169.1,461.6,168.8
		L461.6,168.8z"/>
	<polygon class="st0" points="463.4,165.9 467.6,165.9 467.6,166.5 465.8,166.5 465.8,170.9 465.1,170.9 465.1,166.5 463.4,166.5
		"/>
	<path class="st0" d="M469.2,166.5H469v1.6h0.3c0.4,0,0.6,0,0.8-0.1c0.1-0.1,0.2-0.2,0.3-0.3c0.1-0.1,0.1-0.3,0.1-0.4
		c0-0.2,0-0.3-0.1-0.4c-0.1-0.1-0.2-0.2-0.4-0.3C469.8,166.5,469.6,166.5,469.2,166.5L469.2,166.5z M468.3,170.9v-5h1.3
		c0.5,0,0.9,0.1,1.2,0.4c0.3,0.3,0.5,0.6,0.5,1c0,0.3-0.1,0.6-0.2,0.8c-0.1,0.2-0.4,0.4-0.6,0.5c0.2,0.1,0.3,0.3,0.5,0.4
		c0.2,0.2,0.4,0.5,0.7,1c0.2,0.3,0.3,0.5,0.4,0.6l0.3,0.4h-1.1l-0.2-0.3c0,0,0,0,0-0.1l-0.1-0.2l-0.2-0.4l-0.2-0.4
		c-0.1-0.2-0.3-0.4-0.4-0.5c-0.1-0.1-0.2-0.2-0.3-0.3c-0.1-0.1-0.3-0.1-0.5-0.1h-0.2v2.2H468.3L468.3,170.9z"/>
	<path class="st0" d="M476.1,165.9h0.7v2.9c0,0.4,0,0.7-0.1,0.9s-0.1,0.4-0.2,0.5c-0.1,0.1-0.2,0.2-0.3,0.4
		c-0.4,0.3-0.9,0.5-1.6,0.5s-1.2-0.2-1.6-0.5c-0.1-0.1-0.2-0.2-0.3-0.4c-0.1-0.1-0.2-0.3-0.2-0.5c-0.1-0.2-0.1-0.5-0.1-0.9v-2.9h0.7
		v2.9c0,0.5,0.1,0.8,0.2,1s0.3,0.3,0.5,0.4c0.2,0.1,0.5,0.2,0.8,0.2c0.4,0,0.8-0.1,1.1-0.3c0.1-0.1,0.2-0.3,0.3-0.4
		c0.1-0.2,0.1-0.4,0.1-0.8V165.9L476.1,165.9z"/>
	<path class="st0" d="M482.2,169.8v0.8c-0.5,0.3-1.1,0.4-1.8,0.4c-0.6,0-1-0.1-1.4-0.3s-0.7-0.5-0.9-0.9c-0.2-0.4-0.3-0.8-0.3-1.3
		c0-0.7,0.3-1.4,0.8-1.9s1.2-0.8,1.9-0.8c0.5,0,1.1,0.1,1.8,0.4v0.8c-0.6-0.3-1.2-0.5-1.7-0.5c-0.6,0-1.1,0.2-1.4,0.5
		c-0.4,0.4-0.6,0.8-0.6,1.4c0,0.6,0.2,1,0.6,1.4c0.4,0.4,0.9,0.5,1.4,0.5C481,170.3,481.6,170.1,482.2,169.8L482.2,169.8z"/>
	<polygon class="st0" points="482.6,165.9 486.9,165.9 486.9,166.5 485.1,166.5 485.1,170.9 484.4,170.9 484.4,166.5 482.6,166.5
		"/>
	<polygon class="st0" points="487.6,165.9 488.3,165.9 488.3,170.9 487.6,170.9 	"/>
	<path class="st0" d="M491.9,166.5c-0.6,0-1.1,0.2-1.4,0.5c-0.4,0.4-0.6,0.8-0.6,1.4c0,0.5,0.2,1,0.6,1.4c0.4,0.4,0.8,0.5,1.4,0.5
		s1-0.2,1.4-0.6c0.4-0.4,0.6-0.8,0.6-1.4c0-0.5-0.2-1-0.6-1.4C493,166.7,492.5,166.5,491.9,166.5L491.9,166.5z M491.9,165.8
		c0.8,0,1.4,0.2,2,0.7c0.5,0.5,0.8,1.1,0.8,1.9c0,0.8-0.3,1.4-0.8,1.9s-1.2,0.7-2,0.7s-1.4-0.2-1.9-0.7s-0.8-1.1-0.8-1.8
		c0-0.8,0.3-1.4,0.8-1.9C490.5,166,491.1,165.8,491.9,165.8L491.9,165.8z"/>
	<polygon class="st0" points="499.6,165.9 500.3,165.9 500.3,170.9 499.6,170.9 496.2,167 496.2,170.9 495.6,170.9 495.6,165.9
		496.1,165.9 499.6,169.8 	"/>
</g>
<g>
	<path class="st2" d="M544.3,249.2c0.1,0.3,0.4,0.3,0.7,0.3l-1-1.1C544.2,248.7,544.3,248.9,544.3,249.2L544.3,249.2z M421.5,198
		c-0.2-0.3-0.4-0.3-0.8-0.3l1,1.1C421.6,198.6,421.5,198.3,421.5,198L421.5,198z M587.7,196.5c-4.9-0.2-5.5,3-11.5,6.3
		c3.5-1.8-1.3,4.5-6.1,5.8c-6.2,1.5-10.2,8-15,12.9c-3.5-4-7-7.7-10.6-11.4c2.8-2.7,5.8-6,7.7-8c2.7-5.2-2.4-6.3-2.8-6.2
		c-5-0.2-5.5,3-11.5,6.3c1.6-0.8,1.5,0,0.4,1.3c-0.9-1-1.9-2-2.8-3.1c-3.9-4.4-7.6-8.8-11.1-13.1c-6.4-8-13.7-13.9-19.5-22.3
		c0.8-1.3,1.7-2.6,2.5-3.9h-0.1c-0.9,1-1.9,1.9-3.4,2.5c0.6-0.3,0.7,0,0.3,0.5c-0.1-0.2-0.3-0.4-0.4-0.6c0.5-0.8,1.2-1.6,2.3-1.8
		c0,0,0.2-0.5,0.3-0.8c0.4-0.2,0.6,0.1,0.8,0.2l0.5-0.7c-0.7,0-2.5,0.9-2.5,0.9c-0.6,0.6-1.2,1.2-1.7,1.8c-0.1-0.2-0.2-0.3-0.3-0.5
		c-2.4-3.7-8.4-9-11.4-11.9c-5.1-2.7-6.2,2.4-6.2,2.8c-0.3,5,2.9,5.5,6.2,11.7c-1.6-3.1,3,0.2,5,4.3l-0.9,0.8l-0.3,0.4
		c-0.1,0.3,0.1,0.3,0.3,0.3c-0.2,0-0.5,0.2-0.7,0.3c-0.1,0.2-0.2,0.3-0.4,0.5c0.1-0.1,0.2-0.2,0.3-0.4l0.1-0.1l0.4-0.5l0.1-0.1
		l0.1-0.2l-2.4,2.2c-0.2,0.2-0.3,0.4-0.4,0.5c-0.5,0.6-0.9,1.3-1.6,1.3l-0.4,0.4h0.1l-0.2,0.1l-1.8,1.6c-1.2,1.1-2.4,2.2-3.6,3.2
		c-1.1,1-2.1,1.9-3.1,2.9c-5.5-6.1-11.3-11.3-16.1-18.3c0.8-1.3,1.7-2.7,2.5-3.9h-0.1c-0.9,1-1.9,1.9-3.4,2.5c0.6-0.2,0.7,0,0.3,0.5
		c-0.1-0.2-0.3-0.4-0.4-0.6c0.6-0.8,1.2-1.6,2.3-1.8c0,0,0.2-0.5,0.3-0.8c0.4-0.2,0.6,0.1,0.8,0.2l0.5-0.7c-0.8,0.1-2.5,0.9-2.5,0.9
		c-0.6,0.6-1.1,1.2-1.7,1.8c-0.1-0.2-0.2-0.3-0.3-0.5c-2.4-3.7-8.4-9-11.4-11.9c-5.1-2.8-6.2,2.4-6.2,2.8c-0.2,5,3,5.5,6.3,11.6
		c-1.6-3.1,3,0.2,5,4.3l-0.9,0.8l-0.3,0.4l0,0c-0.1,0.3,0.1,0.3,0.3,0.3c-0.3,0.1-0.5,0.2-0.8,0.3c-0.1,0.2-0.2,0.3-0.4,0.5
		c0.1-0.1,0.2-0.2,0.3-0.4l0.1-0.1l0.4-0.5l0.1-0.2l0.1-0.2l-2.4,2.2c-0.1,0.2-0.3,0.4-0.4,0.6c-0.4,0.6-0.9,1.3-1.6,1.2l-0.4,0.4
		h0.2l-0.2,0.1l-1.8,1.6c-1.2,1-2.4,2.1-3.6,3.2c-7,6.2-13.1,12.5-20.1,19c-1.5-1-3-1.9-4.5-3c-0.5-0.4-0.8-0.8-1.1-1.3
		c0.4,0.6,0.8,1.2,1.3,1.9c0.5,1,2.4,0.9,3.7,2c0.3,0.1-0.4,0.7,0,1c-0.6,0.6-1.2,1.2-1.9,1.7c-0.2,0.2-0.3,0.3-0.4,0.4
		c-0.1-0.1-0.2-0.2-0.3-0.3c0.1,0.1,0.2,0.2,0.3,0.3c-4.2,3.8-8.3,7.4-12.5,10.7c-1.2,1-2.3,1.9-3.4,2.9c-1.1-0.9-2.2-1.7-3.3-2.4
		c1.1,1,2.1,1.8,3.1,2.6c-0.3,0.3-0.6,0.5-0.9,0.8c-0.1-0.5-0.2-1.2-0.6-1.3c-0.8-0.8-1.8-1.2-2.9-1.9c-0.5-0.2,0.2-0.9,0-1
		c-1.4-1-3.2-1-3.7-2c-0.5-0.7-0.9-1.3-1.3-1.9c-0.3-0.4-0.6-0.7-0.9-1l-0.8-0.5c-2-1.1-4.2-2.6-6.1-3.9v0.1
		c1.1,0.9,1.9,1.9,2.5,3.4c-0.2-0.6,0-0.7,0.5-0.3v0.7c-1.1-0.7-2.1-1.3-2.5-2.7c0,0-0.5-0.2-0.8-0.3c-0.2-0.4,0.1-0.6,0.2-0.8
		l-0.7-0.5c0.1,0.8,0.9,2.5,0.9,2.5c2.5,2.5,4.8,4.8,7,7.2c0.3,0.1,0.6,0,0.8,0.3c0,0.3,0.1,0.6,0.3,0.8l0.9,1l0.4,0.3l0,0
		c0.3,0.1,0.3-0.1,0.3-0.3c0,0.2,0.2,0.5,0.3,0.7c0.2,0.1,0.3,0.3,0.5,0.4c-0.1-0.1-0.2-0.2-0.4-0.3l-0.1-0.1l-0.5-0.4l-0.2-0.1
		l-0.2-0.1l2.2,2.4c0.2,0.1,0.4,0.3,0.5,0.4c0.6,0.5,1.3,0.9,1.3,1.6l0.2,0.3c-5.3,5.2-10.4,10.4-17.1,14.7
		c-3.7,2.4-8.9,8.5-11.8,11.5c-2.7,5.2,2.4,6.3,2.8,6.2c5,0.3,5.5-3,11.5-6.3c-3.5,1.8,1.3-4.5,6.1-5.8c6.2-1.5,10.2-8,15.1-13
		c3.5,3.9,7,7.7,10.6,11.4c-2.8,2.7-5.8,6-7.6,8c-2.7,5.2,2.4,6.2,2.8,6.2c5,0.2,5.5-3,11.5-6.3c-1.6,0.8-1.5,0-0.4-1.3
		c0.9,1,1.9,2,2.8,3.1c3.9,4.4,7.6,8.7,11.1,13.1c6.4,8,13.7,13.9,19.5,22.3c-0.8,1.3-1.7,2.6-2.5,3.9h0.1c0.9-1,1.9-1.9,3.4-2.5
		c-0.6,0.3-0.7,0-0.3-0.5c0.1,0.2,0.2,0.4,0.4,0.6c-0.6,0.9-1.2,1.6-2.3,1.9c0,0-0.2,0.5-0.3,0.8c-0.4,0.2-0.6,0-0.8-0.2l-0.5,0.6
		c0.8,0,2.5-0.9,2.5-0.9c0.6-0.6,1.2-1.2,1.7-1.8c0.1,0.2,0.2,0.3,0.3,0.5c2.4,3.7,8.3,9,11.4,11.9c5.1,2.7,6.2-2.5,6.2-2.8
		c0.2-5-3-5.5-6.2-11.7c1.6,3.1-3-0.2-5-4.3l0.9-0.8l0.3-0.4l0,0c0.1-0.3-0.1-0.3-0.3-0.3c0.2-0.1,0.5-0.2,0.7-0.3
		c0.1-0.1,0.2-0.3,0.4-0.5c-0.1,0.1-0.2,0.3-0.3,0.4l-0.1,0.1l-0.4,0.5l0,0l0,0l-0.1,0.1l-0.1,0.2l2.4-2.2c0.2-0.2,0.3-0.4,0.4-0.5
		c0.4-0.6,0.9-1.3,1.6-1.3l0.4-0.4h-0.1l0.2-0.1l1.8-1.7c1.2-1,2.4-2.1,3.6-3.2c1.1-0.9,2.1-1.9,3.1-2.8
		c5.5,6.1,11.3,11.3,16.1,18.3c-0.8,1.3-1.7,2.6-2.5,3.9l0.1,0.1c0.9-1.1,1.9-2,3.3-2.5c-0.6,0.3-0.7,0-0.3-0.5
		c0.1,0.2,0.2,0.4,0.4,0.6c-0.6,0.9-1.2,1.6-2.3,1.9c0,0-0.2,0.5-0.3,0.8c-0.4,0.2-0.6-0.1-0.8-0.2l-0.5,0.6
		c0.8-0.1,2.5-0.9,2.5-0.9c0.6-0.6,1.2-1.2,1.7-1.8c0.1,0.2,0.2,0.3,0.3,0.5c2.4,3.7,8.4,9,11.4,11.9c5.1,2.8,6.2-2.4,6.2-2.8
		c0.2-5-3-5.5-6.2-11.6c1.6,3.1-3-0.2-5.1-4.4l0.9-0.9l0.3-0.4c0.1-0.3-0.1-0.3-0.3-0.3c0.3,0,0.5-0.2,0.7-0.3
		c0.1-0.2,0.2-0.3,0.4-0.5c-0.1,0.1-0.2,0.2-0.2,0.4l-0.1,0.1l-0.4,0.6l-0.1,0.2l2.3-2.2c0.2-0.2,0.3-0.4,0.4-0.5
		c0.4-0.6,0.9-1.3,1.6-1.3l0.4-0.4h-0.2l0.2-0.1l1.8-1.6c1.2-1.1,2.4-2.1,3.6-3.2c7-6.2,13.1-12.5,20-19c1.5,1,3,1.9,4.5,3
		c0.5,0.4,0.8,0.8,1.1,1.3c-0.4-0.6-0.8-1.3-1.3-2c-0.5-1-2.4-0.9-3.7-2c-0.2-0.1,0.4-0.7,0-1c0.6-0.6,1.2-1.1,1.9-1.7
		c0.2-0.1,0.3-0.3,0.5-0.4c0.1,0.1,0.2,0.2,0.3,0.3c-0.1-0.1-0.2-0.2-0.3-0.3c4.2-3.8,8.3-7.4,12.5-10.8c1.1-1,2.3-1.9,3.4-2.9
		c1.1,0.9,2.2,1.7,3.3,2.4c-1.1-1-2.1-1.8-3.1-2.6c0.3-0.3,0.6-0.5,0.9-0.8c0.1,0.5,0.1,1.2,0.5,1.3c0.8,0.8,1.9,1.2,3,1.9
		c0.5,0.2-0.2,0.9,0,1c1.3,1,3.2,1,3.7,2c0.5,0.7,0.9,1.3,1.3,1.9c0.3,0.4,0.6,0.7,0.9,1l0.8,0.5c2,1.2,4.2,2.6,6.1,3.9v-0.1
		c-1.1-0.9-1.9-1.9-2.5-3.4c0.3,0.6,0,0.7-0.5,0.3v-0.8c1.1,0.7,2.1,1.3,2.4,2.7c0,0,0.6,0.2,0.8,0.3c0.2,0.4-0.1,0.6-0.2,0.9
		l0.6,0.5c0-0.8-0.8-2.5-0.8-2.5c-2.5-2.5-4.8-4.8-7-7.2c-0.3,0-0.6,0-0.8-0.3c0-0.3-0.2-0.6-0.2-0.8l-1-1l-0.4-0.3
		c-0.3-0.1-0.3,0.1-0.3,0.3c-0.1-0.2-0.2-0.5-0.3-0.7c-0.1-0.1-0.3-0.2-0.5-0.4c0.1,0.1,0.3,0.2,0.4,0.3l0.1,0.1l0.5,0.4l0,0
		l0.1,0.1l0.2,0.1l-2.1-2.4c-0.2-0.2-0.4-0.3-0.5-0.4c-0.7-0.5-1.3-0.9-1.2-1.6l-0.2-0.3c5.3-5.2,10.4-10.4,17.1-14.7
		c3.7-2.4,8.9-8.5,11.8-11.5C593.2,197.6,588.1,196.5,587.7,196.5L587.7,196.5z M533.7,240.6c0.3,0.2,0.6,0.4,0.9,0.6
		c-0.1,0.1-0.2,0.1-0.2,0.2c-0.1-0.1-0.1-0.3-0.1-0.4c0.1,0.2,0.1,0.4,0.1,0.5c0,0,0,0.1-0.1,0.1s-0.3-0.1-0.6-0.3L533.7,240.6
		L533.7,240.6z M516.8,268.8c0.4-0.7,1.2-1.2,2.2-1.4C518.6,268.4,517.6,268.7,516.8,268.8L516.8,268.8z M490.6,257.8
		c4-3.8,7.9-7.7,12.3-11.7s8.7-7.7,13-11.2c1.2-0.9,2.3-1.9,3.4-2.9c1.1,0.9,2.2,1.7,3.3,2.4c-1.1-1-2.1-1.8-3.1-2.6
		c0.3-0.3,0.6-0.5,0.9-0.8c0.1,0.5,0.1,1.1,0.5,1.3c0.8,0.8,1.9,1.2,2.9,1.9c0.5,0.2-0.2,0.9,0,1c1.3,1,3.2,1,3.7,2
		c0.4,0.7,0.9,1.3,1.3,1.9c0.3,0.4,0.6,0.7,0.9,1l0.8,0.5c1,0.5,1.9,1.2,2.9,1.8c-0.4,0.4-0.7,0.8-1.1,1.2c-0.1,0-0.1,0.1-0.1,0.1
		c-3.4,3.7-6.9,7.5-10.7,11.3c-2.4,2.5-3.9,5.3-5.6,7.7c-1.4,1.6-3.3,2.9-4.5,4.1c-1.9,1.9-3.3,3.9-4.6,5.8c1.6-1.9,2.7-3.4,4.6-5.5
		c1.2-1.4,0,1.9-0.7,2.9c-0.2,0.5-1.6,0.3-1.8,0.9c-0.8,0.8-1.2,1.9-1.9,3c-0.2,0.5-0.9-0.3-1,0c-0.2,0.2-0.3,0.4-0.4,0.6
		c-2.8-6.1-10.2-10.2-14.6-15.9C491,258.3,490.8,258.1,490.6,257.8L490.6,257.8z M478.4,268.2c0.4-0.7,1.2-1.2,2.2-1.5
		C480.1,267.7,479.2,268,478.4,268.2L478.4,268.2z M434.8,239.1c5.8-1.8,9.7-8,14.3-12.7c6.4,7.2,12.9,13.6,19.7,21.1
		c3.6,4.1,7.1,8.1,10.3,12.2c-0.5,0.8-1,1.6-1.6,2.4c-1.4,1.6-3.3,2.9-4.5,4.1c-1.9,1.9-3.3,3.8-4.5,5.8c1.6-1.9,2.7-3.4,4.6-5.5
		c1.2-1.4,0,1.9-0.7,2.9c-0.2,0.5-1.6,0.3-1.8,0.9c-0.8,0.8-1.2,1.9-1.9,3c-0.2,0.5-0.9-0.2-1,0c-0.2,0.2-0.3,0.4-0.3,0.5
		c-2.8-6.1-10.2-10.1-14.6-15.8c-1.2-1.6-2.9-3-4.5-4.7C444.1,248,439.5,243.5,434.8,239.1L434.8,239.1z M430.9,206.4
		c1.9,1.9,3.7,3.8,5.4,5.6c0.3,0,0.6,0,0.7,0.3s0.2,0.5,0.3,0.8l1,1l0.4,0.3l0,0c0.3,0.1,0.3,0,0.3-0.3c0.1,0.3,0.1,0.5,0.3,0.7
		c0.1,0.1,0.3,0.2,0.4,0.4c-0.1-0.1-0.3-0.2-0.3-0.3c-0.1,0-0.1-0.1-0.1-0.1l-0.5-0.4l-0.1-0.1l-0.2-0.1l2.2,2.4
		c0.2,0.2,0.4,0.3,0.5,0.4c0.7,0.5,1.3,0.9,1.3,1.6l0.2,0.2c-4.8,4.6-9.3,9.3-15,13.3c-1.8-1.7-3.5-3.5-5.3-5.3
		c-2.3-2.3-4.9-3.7-7.2-5.3c1-1,2-2.1,3.1-3.1C422.9,214.8,426.9,210.7,430.9,206.4L430.9,206.4z M432.1,206.7
		c-0.3-0.2-0.7-0.4-1-0.6c0.1-0.1,0.2-0.2,0.2-0.2c0.1,0.1,0.1,0.2,0.2,0.4c-0.1-0.2-0.1-0.4-0.1-0.5l0.1-0.1c0.1,0,0.3,0.1,0.5,0.2
		L432.1,206.7L432.1,206.7z M449,178.4c-0.4,0.7-1.2,1.3-2.1,1.5C447.2,178.9,448.1,178.6,449,178.4L449,178.4z M475.2,189.4
		c-4,3.8-7.9,7.7-12.2,11.7c-4.4,4-8.7,7.7-13,11.2c-1.2,1-2.3,1.9-3.4,2.9c-1.1-0.9-2.2-1.7-3.3-2.4c1.1,1,2.1,1.8,3.1,2.6
		c-0.3,0.3-0.6,0.6-0.9,0.8c-0.1-0.5-0.1-1.2-0.5-1.3c-0.8-0.8-1.9-1.2-3-1.9c-0.5-0.2,0.2-0.9,0-1c-1.4-1-3.2-1-3.8-1.9
		c-0.4-0.7-0.9-1.3-1.2-1.9c-0.3-0.4-0.6-0.7-0.9-1l-0.8-0.5c-1-0.5-1.9-1.2-2.9-1.8c0.4-0.4,0.7-0.8,1.1-1.2c0.1,0,0.1-0.1,0.1-0.1
		c3.4-3.7,6.9-7.5,10.8-11.3c2.4-2.5,3.9-5.3,5.5-7.7c1.4-1.6,3.3-2.9,4.5-4.1c1.9-1.9,3.3-3.9,4.5-5.8c-1.6,1.9-2.7,3.4-4.6,5.5
		c-1.3,1.4,0-1.9,0.6-2.9c0.2-0.5,1.6-0.3,1.8-0.8c0.8-0.8,1.2-1.9,1.9-3c0.2-0.5,0.9,0.2,1,0s0.3-0.4,0.4-0.6
		c2.8,6.1,10.2,10.2,14.6,15.9C474.8,188.9,475,189.2,475.2,189.4L475.2,189.4z M505.1,219.7c2.3,2.3,4.9,3.7,7.2,5.3
		c-1,1-2,2.1-3.1,3.1c-8.9,7.2-15.5,15.7-23.8,24.1c-7.5-8.9-16.2-15.6-24.6-24.5c-2.3-2.3-4.8-3.7-7.1-5.3c1-1,2-2.1,3.1-3.1
		c8.9-7.2,15.4-15.7,23.8-24.1C487.9,204,496.7,210.7,505.1,219.7L505.1,219.7z M487.4,179.1c-0.4,0.7-1.2,1.3-2.1,1.5
		C485.6,179.5,486.5,179.2,487.4,179.1L487.4,179.1z M531,208.2c-5.7,1.8-9.6,8-14.3,12.7c-6.4-7.2-12.9-13.6-19.7-21.1
		c-3.7-4.1-7.1-8.1-10.3-12.2c0.5-0.8,1-1.6,1.5-2.4c1.4-1.6,3.3-2.9,4.5-4.1c1.9-1.9,3.3-3.9,4.5-5.8c-1.6,1.9-2.7,3.4-4.6,5.5
		c-1.3,1.4,0-1.9,0.6-2.9c0.2-0.5,1.6-0.3,1.8-0.8c0.8-0.8,1.2-1.9,1.9-3c0.2-0.5,0.9,0.2,1,0s0.2-0.4,0.3-0.6
		c2.8,6.1,10.2,10.1,14.6,15.9c1.2,1.6,2.8,3,4.5,4.7C521.7,199.3,526.2,203.7,531,208.2L531,208.2z M550.6,225.6
		c-1,1-2,2.1-3.2,3.1c-4.6,3.8-8.6,7.9-12.6,12.2c-1.9-1.9-3.7-3.8-5.4-5.6c-0.3,0-0.6,0-0.8-0.3c0-0.3-0.2-0.6-0.3-0.8l-0.9-1
		l-0.4-0.3c-0.3-0.1-0.3,0.1-0.3,0.3c-0.1-0.3-0.2-0.5-0.4-0.8c-0.1-0.1-0.3-0.2-0.4-0.4c0.1,0.1,0.2,0.2,0.3,0.3l0.1,0.1l0.7,0.5
		l0.2,0.1l-2.2-2.4c-0.2-0.2-0.4-0.3-0.5-0.4c-0.6-0.5-1.3-0.9-1.2-1.6l-0.2-0.3c4.8-4.6,9.3-9.3,15-13.3c1.8,1.7,3.6,3.5,5.3,5.3
		C545.7,222.6,548.3,224,550.6,225.6L550.6,225.6z M542.9,247.2l-0.2-0.1l0.4,0.3L542.9,247.2L542.9,247.2z M542.7,247.1l-0.7-0.5
		c0.2,0.2,0.3,0.5,0.3,0.8C542.3,247.2,542.4,247,542.7,247.1L542.7,247.1z M422.9,200l0.2,0.1l-0.4-0.3L422.9,200L422.9,200z
		 M423.1,200.1l0.6,0.5c-0.2-0.2-0.2-0.5-0.3-0.7C423.4,200.1,423.3,200.3,423.1,200.1L423.1,200.1L423.1,200.1z M521.4,145.3
		l0.5-0.7l0,0L521.4,145.3L521.4,145.3L521.4,145.3z M518,147.8c1.5-0.6,2.5-1.5,3.4-2.5c-0.3-0.1-0.5-0.4-0.9-0.2
		c-0.1,0.3-0.3,0.8-0.3,0.8c-1.3,0.3-2.1,1.4-2.7,2.5h0.7C518.7,147.8,518.6,147.5,518,147.8L518,147.8z M514.8,154.4
		c0.4-0.5,0.8-0.8,1.3-1.1c-0.6,0.4-1.2,0.8-2,1.3c-0.9,0.6-0.9,2.4-1.9,3.8c-0.1,0.3-0.8-0.5-1,0c-0.7,1.1-1.1,2.2-1.9,3
		c-0.2,0.5-1.6,0.3-1.8,0.8c-0.7,1.1-1.9,4.3-0.6,2.9c1.9-2.1,3-3.6,4.6-5.5C512.6,157.9,513.6,156.2,514.8,154.4L514.8,154.4z
		 M512,153.3c0.3-0.1,0.3-0.4,0.3-0.8l-1.1,1C511.4,153.5,511.6,153.4,512,153.3L512,153.3z M510.1,155.3c-0.2,0-0.4,0-0.3-0.3
		l-0.5,0.7C509.6,155.5,509.9,155.4,510.1,155.3L510.1,155.3z M509.8,155L509.8,155L509.8,155L509.8,155L509.8,155z M509.9,154.7
		l-0.1,0.2l0.3-0.4L509.9,154.7L509.9,154.7z M483,144.7l0.5-0.7l0,0L483,144.7L483,144.7L483,144.7z M479.6,147.2
		c1.5-0.6,2.5-1.5,3.4-2.5c-0.2-0.1-0.5-0.4-0.9-0.2c-0.1,0.3-0.3,0.8-0.3,0.8c-1.3,0.3-2,1.4-2.7,2.5h0.7
		C480.3,147.2,480.2,146.9,479.6,147.2L479.6,147.2z M476.4,153.8c0.4-0.5,0.8-0.8,1.3-1.1c-0.6,0.4-1.2,0.8-1.9,1.3
		c-1,0.5-0.9,2.4-1.9,3.8c-0.1,0.3-0.8-0.5-1,0c-0.7,1.1-1.1,2.2-1.9,3c-0.2,0.5-1.6,0.3-1.8,0.9c-0.6,1.1-1.9,4.3-0.6,2.9
		c1.9-2.1,2.9-3.6,4.6-5.5C474.2,157.2,475.2,155.5,476.4,153.8L476.4,153.8z M473.5,152.7c0.3-0.2,0.3-0.4,0.3-0.8l-1.1,1
		C473,152.8,473.2,152.7,473.5,152.7L473.5,152.7z M471.7,154.7c-0.2,0-0.4-0.1-0.3-0.3L471,155
		C471.2,154.8,471.5,154.7,471.7,154.7L471.7,154.7z M471.4,154.3L471.4,154.3L471.4,154.3L471.4,154.3L471.4,154.3z M471.4,154.3
		l0.3-0.4l-0.2,0.2L471.4,154.3L471.4,154.3z M416.6,192.4v-0.7c-0.5-0.5-0.8-0.3-0.5,0.3c-0.6-1.5-1.4-2.5-2.5-3.4
		c-0.1,0.2-0.4,0.5-0.2,0.8c0.2,0.1,0.8,0.3,0.8,0.3C414.4,191,415.5,191.7,416.6,192.4L416.6,192.4z M412.9,188l0.6,0.5v-0.1
		L412.9,188L412.9,188L412.9,188z M385,199.2c0,0.2-0.1,0.4-0.3,0.3l0.7,0.5C385.2,199.7,385.1,199.5,385,199.2L385,199.2z
		 M384.7,199.5l-0.4-0.3l0.2,0.2L384.7,199.5L384.7,199.5z M383.1,197.4c-0.1-0.3-0.4-0.3-0.8-0.3l1,1.1
		C383.2,197.9,383.1,197.7,383.1,197.4L383.1,197.4z M391.9,201.8c1.1,0.7,4.3,1.9,2.9,0.7c-2.1-1.9-3.6-3-5.5-4.6
		c-1.7-1.2-3.4-2.2-5.2-3.4c-0.4-0.4-0.8-0.8-1.1-1.3c0.4,0.6,0.8,1.3,1.3,1.9c0.6,1,2.4,1,3.8,2c0.3,0.1-0.5,0.8,0,1
		c1.1,0.7,2.1,1.1,3,1.9C391.6,200.2,391.3,201.6,391.9,201.8L391.9,201.8z M378.2,191.7V191c-0.5-0.5-0.8-0.3-0.5,0.3
		c-0.6-1.5-1.5-2.5-2.5-3.4c-0.1,0.3-0.4,0.5-0.2,0.9c0.3,0.1,0.8,0.3,0.8,0.3C376,190.4,377.1,191,378.2,191.7L378.2,191.7z
		 M374.5,187.3l0.6,0.5l0.1-0.1L374.5,187.3L374.5,187.3L374.5,187.3z M444.3,301.9l-0.5,0.7l0,0L444.3,301.9L444.3,301.9
		L444.3,301.9z M447.8,299.4c-1.5,0.6-2.5,1.5-3.4,2.5c0.3,0.2,0.5,0.4,0.9,0.2c0.1-0.3,0.3-0.8,0.3-0.8c1.3-0.3,2-1.4,2.7-2.5
		l-0.7,0.1C447,299.4,447.2,299.7,447.8,299.4L447.8,299.4z M450.9,292.8c-0.4,0.4-0.8,0.8-1.2,1.1c0.6-0.4,1.2-0.8,1.9-1.3
		c1-0.6,0.9-2.4,2-3.8c0.1-0.3,0.8,0.5,1,0c0.7-1.1,1.1-2.2,1.9-3c0.2-0.5,1.6-0.3,1.8-0.9c0.7-1.1,1.9-4.3,0.7-2.9
		c-1.9,2.1-2.9,3.6-4.5,5.5C453.2,289.4,452.2,291.1,450.9,292.8L450.9,292.8z M453.8,293.9c-0.3,0.1-0.3,0.4-0.3,0.7l1.1-1.1
		C454.4,293.8,454.1,293.9,453.8,293.9L453.8,293.9z M455.9,292.3L455.9,292.3l0.5-0.6c-0.3,0.2-0.5,0.3-0.7,0.3
		C455.9,292,456,292,455.9,292.3L455.9,292.3z M455.9,292.3l-0.3,0.4l0.2-0.2L455.9,292.3L455.9,292.3z M482.7,302.6l-0.5,0.7l0,0
		L482.7,302.6L482.7,302.6L482.7,302.6z M486.2,300.1c-1.4,0.6-2.5,1.5-3.4,2.5c0.3,0.1,0.5,0.4,0.8,0.2c0.1-0.3,0.3-0.8,0.3-0.8
		c1.3-0.3,2-1.4,2.7-2.5h-0.7C485.4,300.1,485.6,300.4,486.2,300.1L486.2,300.1z M489.4,293.5c-0.4,0.4-0.8,0.8-1.3,1.1
		c0.6-0.4,1.2-0.8,1.9-1.3c1-0.6,1-2.4,2-3.8c0.1-0.3,0.8,0.5,1,0c0.7-1.1,1.1-2.1,1.9-3c0.2-0.5,1.6-0.3,1.8-0.9
		c0.7-1.1,1.9-4.3,0.6-2.9c-1.9,2.1-3,3.6-4.6,5.5C491.6,290,490.6,291.7,489.4,293.5L489.4,293.5z M492.2,294.6
		c-0.3,0.2-0.3,0.5-0.3,0.8l1.1-1C492.8,294.4,492.5,294.5,492.2,294.6L492.2,294.6z M494.1,292.6c0.2,0,0.4,0.1,0.3,0.3l0.4-0.7
		C494.6,292.4,494.3,292.5,494.1,292.6L494.1,292.6z M494.3,292.9l-0.3,0.4l0.2-0.2L494.3,292.9L494.3,292.9z M549.2,254.9v0.8
		c0.5,0.5,0.8,0.3,0.5-0.3c0.6,1.4,1.4,2.5,2.5,3.4c0.1-0.2,0.4-0.5,0.2-0.8c-0.3-0.1-0.8-0.3-0.8-0.3
		C551.3,256.2,550.3,255.6,549.2,254.9L549.2,254.9z M552.9,259.3l-0.6-0.5v0.1L552.9,259.3L552.9,259.3L552.9,259.3z M581.1,247.8
		L581.1,247.8l-0.7-0.5c0.2,0.3,0.3,0.5,0.3,0.8C580.7,247.8,580.8,247.6,581.1,247.8L581.1,247.8z M581.1,247.8l0.4,0.3l-0.2-0.2
		L581.1,247.8L581.1,247.8z M582.7,249.9c0.1,0.3,0.4,0.3,0.8,0.3l-1-1.1C582.6,249.3,582.7,249.6,582.7,249.9L582.7,249.9z
		 M573.9,245.4c-1.1-0.6-4.3-1.9-2.9-0.6c2.1,1.9,3.5,3,5.5,4.6c1.7,1.1,3.4,2.2,5.1,3.4c0.4,0.4,0.8,0.8,1.1,1.2
		c-0.4-0.6-0.8-1.2-1.3-1.9c-0.6-1-2.4-0.9-3.7-2c-0.2-0.1,0.5-0.8,0-1c-1.1-0.7-2.1-1.1-2.9-1.9C574.2,247,574.4,245.6,573.9,245.4
		L573.9,245.4z M587.6,255.5v0.7c0.5,0.5,0.8,0.3,0.5-0.3c0.6,1.5,1.5,2.5,2.5,3.4c0.1-0.3,0.4-0.5,0.2-0.8
		c-0.3-0.1-0.8-0.3-0.8-0.3C589.7,256.9,588.7,256.2,587.6,255.5L587.6,255.5z M591.3,259.9l-0.6-0.5v0.1L591.3,259.9L591.3,259.9
		L591.3,259.9z"/>
	<path class="st3" d="M900.3,369.6c-0.5,0.6-4.3,3.4-4.3,3.4c-6.3,4.1-8.8,0.8-4.8-2.8c4-3.7,2.4-4.4,2.4-4.4
		c-4.1-1.9-6.9,2.6-6.9,2.6s1.3-0.3,2.7-0.6c1.4-0.3,2.1,0.2,2.1,0.2c-7.1,6.6-4,8.1-4,8.1c5.7,2.7,10.3-2.8,13-5.5
		C903,367.9,900.3,369.6,900.3,369.6L900.3,369.6z M900.2,345.7l1-6.7c-12-2.1-31.9-8.4-42.9-8.4s-9.7,16.8-8.7,20.5
		c0.2,0.6,0.4,1.5,0.6,2.5c0,0-4.9-2.2-6.1-13.1c0-0.3-5.8-61.3-10.8-85.3l-2,7c0,0,2.8,11.7,4.2,30.6c1.8,15.8,5.8,47.6,5.8,48.6
		c1.3,11.6,4.9,16.7,9.6,19.3c0.2,0.1,0.4,0.3,0.6,0.4c0.4,2.5,0.7,6.1,0.7,6.1c0.1,0.9,0.7,1.3,1,0c0.3-1.2,0.1-5.3,0.1-5.3
		c1.7,0.8,3.8,1.1,6.3,0.9c0.7,0,1.2-0.1,1.7-0.2c3.9-0.7,8.8-2.6,14.6-6.2C886.8,349.6,900.2,345.7,900.2,345.7L900.2,345.7z
		 M889.1,343.1c0,0-11.8,5.4-15.4,7.6c-3.7,2.2-13.5,7.4-21.1,4c0,0-0.9-5.9-1.4-7.9s-0.5-10.2,6.5-9.6S869.8,338.3,889.1,343.1
		L889.1,343.1z M877.4,296.8c-2.6,3.4,2.8,7.5,2.8,7.5c0.7-0.7,1-0.1,1-0.1c2.1,2,4.1,8.3,4.3,9.5c0.2,1.2,0.5,2.4,1.3,1.4
		c0.8-0.9,2.9-11.4,4.1-14.8c1.2-3.4,5.5,0.6,5.5,0.6l1.8-3.9c-0.1-0.2-2.4-6.4-5.7-3s-5.2,14.6-5.2,14.6l-0.5,0.5
		c0,0-2.1-7.4-4.8-11.8C879.3,293.1,877.4,296.8,877.4,296.8L877.4,296.8z M857.6,298.8c3.4,6.3,6.5,13.8,4.9,23.1
		c-0.3,1.9-0.5,1.9,0,1.9c1.6,0,6.3-15.2-4.2-32.9L857.6,298.8L857.6,298.8z M899,268.2l2.1-3.3l-50.6,19.5l-2.3,3.6L899,268.2
		L899,268.2z M857.3,270l-0.4-0.6c0,0-3.3,5.5-4.7-0.2c-1.4-5.6,4.2-11.3,4.2-11.3s1.4-2.8-0.6-0.6c-1.9,2.1-9.4,13.8-3.1,18
		C852.8,275.4,857.2,276.4,857.3,270L857.3,270z M833.1,337.2c-5-2-9.5,6.5-9.5,6.5c-1.3,0-2.1,1.1-3.7,3.9
		c-1.7,2.8-4.5,7.3-10.9,7.3s-13.6-4.2-13.6-4.2c0.7-0.7,8.7-4.4,8.7-4.4l2.2-6.8c-17.8-8.5-32.7,1.5-32.7,1.5l-2.1,6.7
		c7.6-3.6,12.9,2.9,12.9,2.9s-7.6,7-17.2,5.4c-12.1-2-11-7.4-15.9-12.3c-4.9-5-10.8,1.4-12.9,4.9c-2.1,3.5-5.3,10.2-7.2,15.8
		c-2.3,6.8-5,8.9-10.1,4.6c-4.9-3.9-4.1-18.9-4.1-21.2s0-5.5-0.9-2.3c-0.8,3.2-1.8,21.9,4.6,28.4c6.5,6.5,10.6,0,12.1-2.6
		c1.4-2.6,3.9-11.4,7.5-16.8s7.8-5.4,9.6-2.2c1.8,3.2,7,11.6,17.1,11.6c10,0,22.4-10,22.4-10c8.7,6.2,14,8.7,20.5,8.7
		s11.6-11.3,11.6-11.3s5.7,4.5,10.1,6.3c4.3,1.7,6.3-2.5,6.9-5C838.8,350.1,838.1,339.2,833.1,337.2L833.1,337.2z M790.9,347.3
		l-4.3-3.2c4.3-1.8,10.1-0.2,10.1-0.2L790.9,347.3L790.9,347.3z M833.1,349.8c-4.1-0.6-7.1-4.2-7.1-4.2
		C832.4,341.9,833.1,349.8,833.1,349.8L833.1,349.8z M811.2,311.9c0-3.2,6.4-2.9,6.4-2.9l1.4-3.4c-4.4-7.3-6.1-5.1-7.9-2.4
		c-1.8,2.7,0,1.7,0,1.7c4.5-2.4,3.7,0.5,3.7,0.5c-3.8,0.9-5.8,6.7-5,10c0.9,3.4,2.9,18.9,2.9,21.1s0.5,2.6,0.5,2.6
		C814.4,333.7,811.2,315.2,811.2,311.9L811.2,311.9z M821,284.9l1.5-3.6c-0.1-0.2-2-6-4.7-2.8c-2.7,3.2-4.2,13.7-4.2,13.7l-0.4,0.5
		c0,0-1.7-7-3.9-11.1c-2.2-4.2-3.7-0.7-3.7-0.7c-2.1,3.3,2.2,7,2.2,7c0.6-0.7,0.8-0.1,0.8-0.1c1.7,1.9,3.3,7.9,3.5,9
		c0.2,1.1,0.4,2.3,1,1.4c0.6-0.9,2.4-10.8,3.4-13.9C817.5,281.2,821,284.9,821,284.9L821,284.9z M777.3,311
		c-1.6-5.8,4.7-11.7,4.7-11.7s1.6-2.9-0.6-0.7c-2.2,2.2-10.5,14.3-3.5,18.6c0,0,5,1,5-5.5l-0.4-0.7
		C782.5,311.1,778.8,316.8,777.3,311L777.3,311z M743.8,312c0,0-1.2,2.8-1.9,4.7c-0.8,1.9,2.8,3.3,3.7,3.8s3.4,1.8,3.4,1.8
		s3-5.3,2.5-6.8c-0.6-1.4-5.5-3.5-6.6-3.8C743.9,311.3,743.8,312,743.8,312L743.8,312z M817.3,270.3l3.4-5.2l-79.8,30.7l-3.7,5.6
		L817.3,270.3L817.3,270.3z M733.2,312.5c0,0-1.5,4.3-2.2,5.8c-0.6,1.5,0.9,2.5,0.9,2.5s3.8,2.5,4.9,3.2c1.2,0.6,1.7,1.5,3.4-1.7
		c2.1-3.8-0.4-5.4-2.4-6.3C735.9,315,733.2,312.5,733.2,312.5L733.2,312.5z M737.9,267.8c-8.2-4-7.1,4.7-7.1,4.7
		c0.8,1.2-0.7,2.1-0.7,2.1c-5.5,6.2,3.9,6.7,3.9,6.7c-0.3,2.7-6.4,7.8-13,12.6c-2.1-12.5-3.9-22.7-3.9-22.7l2.8,2.5
		c0,0,1.6,1.7,0.5-1.2c-1-2.9-4.9-11.4-7.3-15.4l-1.3,7.6c0,0,1.1,1.2,1.8,5.1c0.4,2.6,2.8,17.1,4.3,26.4
		c-6.9,4.8-13.4,8.7-13.4,8.7c1.6-0.4,7.5-3,7.5-3c2.2-1,4.3-2.3,6.3-3.6c0.6,3.4,0.9,5.8,0.9,5.8s5.6,33.2,5.6,44.7
		c0,8,2.3,3.6,2.1-9.1c0-5.4-0.9-15.5-1.9-21.6c-1.2-7-2.5-14.7-3.7-21.9c8.8-6.6,15.2-14.7,15.2-14.7l5.1,0.5
		C749.8,282.7,746.2,271.8,737.9,267.8L737.9,267.8z M736.8,276.4c0,0-3.7,2-5.8-1.4c0,0,3.1-6.2,5.6-2.3
		C736.6,272.8,737.4,275.5,736.8,276.4L736.8,276.4z M744.6,278.6c0,0-1.1,0.8-7-1.2c0,0,0.8-3.4,1.8-4.4
		C739.4,273,743.1,274.4,744.6,278.6L744.6,278.6z M701.8,271.5c-1.5-3.8-7.2-14.9-7.2-14.9l-1.8,7.8c0,0,1.2,0.8,1.8,5.5
		c0.6,4.7,6.5,34.9,7.9,42.9c2.6,14.9,2.7,14.4,3.2,19.3c0,0-2.9,5.2-8.5,5.8c-5.6,0.6-8.8-0.6-12.2-4.1c0,0,7.2-4.4,5.1-12.1
		c-2.1-7.7-5.6-13.1-10.7-10.7c-5.8,2.6-1,19.2-0.2,20.8c0,0-6.8,4.8-19.4,7.2c3.6-2.4,6.9-5.4,8.8-9c3.5-6.7-0.5-12.4-5.2-14.6
		c-4.7-2.2-14.6-6.3-26,11.2c-3,4.6-5,8.3-6.4,11.3c-3-1.4-4.4-3.8-5.1-5.5c1.8-3,2.1-5.1,0.1-3.6c0,0-7.3,7.1-14.4,7.7
		c-7.2,0.6-10.5-2.1-13-8.5c-2.4-6.4-8.1-8.2-13.5,2.5c-5.4,10.6-2.6,17.2-2.6,17.2s-7.5,0.1-17.6,7.8
		c-10.1,7.7-22.1,19.2-29.1,14.3s4.5-22,15-32.6c0.8-0.8,1.3-1.4,1.8-1.9c1.9-0.5,4.2-2.2,4.3-7.3l-0.6-0.9c0,0-5,7.8-7.1-0.2
		c-2.1-7.9,6.4-16,6.4-16s2.1-3.9-0.8-0.9c-3,3-14.3,19.5-4.8,25.4c0,0,0.4,0.1,0.9,0.1c-3.8,3.3-9.9,9.8-13.4,16.3
		c-6.9,12.7-7.9,21.1,0.3,24.7c7.9,3.5,22.4-10.1,26.2-12.9c3.8-2.8,14.5-9.7,20.2-8.2c5.8,1.5,15.3,11.1,15.3,11.1l1.7-8.4
		c0,0-5.2-4.9-9.9-8.3s-9.7-8.7-5.9-14.5c3.8-5.8,9.9-7.1,11.6,0.9c1.6,8.1,10.5,9.7,17.1,7.2c3.7-1.3,7-4.3,9.3-7.3
		c0.7,3.6,3.4,6.6,5.2,8.2c-1.1,3.8-0.6,5.2-0.6,5.2c1.2-2.8,2.1-4,2.1-4c2.4,1.3,4.9,1.7,7.4,1.6c8.2,0.6,29,0.8,44-10.5
		c0,0,4.8,10.7,14.4,9c9.6-1.6,13.8-11.3,11.7-24.5s-9.2-51-9.2-51l2.6,2.6C700.8,272.7,703.4,275.3,701.8,271.5L701.8,271.5z
		 M633.8,339.1c0,0,7.1-13.6,13.8-16.4s12.5-2.4,18.7,4.9C666.3,327.6,652.1,341.8,633.8,339.1L633.8,339.1z M682.1,329.7
		c-1.9-3-4.1-9.8-1.1-11.5c4.3-2.7,7,6,7,6C686.4,327.2,682.1,329.7,682.1,329.7L682.1,329.7z M687.2,295.9c0,0,3-5.4,2.4-6.8
		c-0.6-1.4-5.5-3.5-6.6-3.8s-1.1,0.3-1.1,0.3s-1.2,2.8-1.9,4.7c-0.8,1.9,2.8,3.3,3.7,3.8C684.6,294.6,687.2,295.9,687.2,295.9
		L687.2,295.9z M671.3,286.2c0,0-1.5,4.2-2.1,5.8c-0.7,1.5,0.9,2.5,0.9,2.5s3.8,2.5,4.9,3.2c1.2,0.6,1.7,1.5,3.5-1.6
		c2.1-3.8-0.4-5.4-2.4-6.4C673.9,288.7,671.3,286.2,671.3,286.2L671.3,286.2z M623.6,307.5c-1.6-5.8,4.7-11.7,4.7-11.7
		s1.6-2.8-0.6-0.6c-2.2,2.2-10.4,14.3-3.5,18.6c0,0,5,1.1,5.1-5.5l-0.4-0.6C628.9,307.6,625.2,313.2,623.6,307.5L623.6,307.5z
		 M684.5,263l3.4-5.2l-79.8,30.7l-3.6,5.7L684.5,263L684.5,263z M607.2,272.9l-0.4-0.6c0,0-3.3,5.5-4.7-0.2
		c-1.4-5.6,4.2-11.3,4.2-11.3s1.4-2.8-0.5-0.6c-2,2.1-9.4,13.9-3.1,18C602.7,278.2,607.2,279.3,607.2,272.9L607.2,272.9z
		 M598.7,288.8c-0.9-0.4-12.4-1.1-12.7-0.9c-0.3,0.2-2.8,5.4-3.5,7.2s0,1.6,0.5,0.8c0.5-0.9,0.9-0.6,0.9-0.6
		c2.1-0.7,9.1,0.5,9.1,0.5c-0.8,1.1-6.8,5-9.2,6.4c-2.4,1.4-0.5,1.4-0.5,1.4C596.7,302.2,599.6,289.2,598.7,288.8L598.7,288.8z
		 M565,298.3c0-3.7,7.3-3.3,7.3-3.3l1.7-3.9c-5-8.4-7-5.8-9-2.7c-2,3.1,0,1.9,0,1.9c5.1-2.7,4.2,0.6,4.2,0.6
		c-4.3,1-6.7,7.6-5.7,11.5c1,3.9,3.4,21.7,3.4,24.2c0,2.6,0.5,2.9,0.5,2.9C568.6,323.1,565,301.9,565,298.3L565,298.3z M576.1,267.3
		l1.7-4.2c-0.2-0.3-2.2-6.8-5.3-3.2c-3.1,3.6-4.9,15.7-4.9,15.7l-0.4,0.6c0,0-1.9-7.9-4.5-12.7c-2.5-4.7-4.3-0.8-4.3-0.8
		c-2.3,3.7,2.6,8,2.6,8c0.7-0.8,1-0.2,1-0.2c1.9,2.1,3.8,9,4,10.3s0.4,2.6,1.2,1.5c0.7-1,2.7-12.3,3.8-15.9
		C572.1,263,576.1,267.3,576.1,267.3L576.1,267.3z M607,369.3c-0.6,1.5,0.9,2.5,0.9,2.5s3.8,2.5,4.9,3.2c1.2,0.7,1.7,1.5,3.4-1.7
		c2.1-3.8-0.4-5.3-2.5-6.4c-2-1-4.7-3.5-4.7-3.5S607.6,367.7,607,369.3L607,369.3z M619.8,363c0,0-1.2,2.8-1.9,4.7
		c-0.9,2.3,5.6,4.7,7.2,5.5c0,0,3-5.4,2.4-6.8s-5.5-3.5-6.6-3.8C619.8,362.3,619.8,363,619.8,363L619.8,363z M633.2,374.5l-1.6,2.5
		l34.4-13.4l1.5-2.3L633.2,374.5L633.2,374.5z M675,358.4c-2.1,3.3,2.2,7,2.2,7c0.6-0.7,0.8-0.2,0.8-0.2c1.7,1.9,3.3,7.9,3.5,9
		c0.2,1.1,0.4,2.2,1,1.3s2.4-10.7,3.4-13.9c0.9-3.2,4.5,0.6,4.5,0.6l1.5-3.6c-0.1-0.2-2-6-4.7-2.8c-2.7,3.2-4.2,13.8-4.2,13.8
		l-0.4,0.5c0,0-1.7-6.9-3.9-11.1C676.5,354.9,675,358.4,675,358.4L675,358.4z M708,358.6c-1.9,2.1-9.4,13.9-3.1,18.1
		c0,0,4.5,1,4.6-5.3l-0.4-0.6c0,0-3.3,5.5-4.7-0.2c-1.4-5.6,4.3-11.3,4.3-11.3S710,356.4,708,358.6L708,358.6z M805.9,374.2
		l-1.6,2.5l35.2-13.7l1.5-2.3L805.9,374.2L805.9,374.2z M869.6,366c0,0-1.2,2.8-1.9,4.7c-0.8,1.9,2.8,3.3,3.7,3.7
		c0.9,0.5,3.4,1.8,3.4,1.8s3-5.3,2.5-6.8c-0.6-1.4-5.5-3.5-6.6-3.8C869.6,365.3,869.6,366,869.6,366L869.6,366z"/>
	<path class="st3" d="M458.5,369.8c-0.7-1.6-1-5.2-1-10.8v-23.1h-15.4v1.7h5.8v19.2c-2.5,4.7-5.4,7-8.7,7c-1.3,0-2.2-0.4-2.5-1.1
		c-0.3-0.7-0.5-2.7-0.5-5.9v-20.9H421v1.7h5.9v15.6c0,4.5,0.5,7.5,1.4,8.9c1.6,2.5,4.5,3.8,8.6,3.8c4.2,0,7.9-1.8,10.9-5.4v8.2
		c0,4.2-0.3,6.9-0.9,8c-0.9,1.8-2.6,2.8-5,2.8c-1.9,0-3.8-0.6-5.8-1.8c-2-1.2-3.3-2.5-3.9-3.8l-0.8-0.5l-2.7,3.8c3.1,2.7,7,4,11.7,4
		C448.3,381,454.2,377.3,458.5,369.8L458.5,369.8z M410,361c-0.1,0.4-0.1-1.1-0.1-4.3l0.1-19.1c3.7,0,6.2,1.4,7.4,4.2h1.7v-5.9H410
		v-30.4h-9.2v30.4h-6.2v1.7h6.2V356c0,3.8,0.5,6.3,1.4,7.4c1.5,1.8,3.9,2.7,7.4,2.7c3.6,0,6.8-1.5,9.6-4.5l-0.9-0.9
		c-2.4,2.3-4.4,3.4-6.1,3.4C410.9,364.1,410.2,363,410,361L410,361z M371.2,365.3h21.3v-1.7h-6.1v-26.1h2.6v-1.6h-17.8v1.7h5.9v26.1
		h-5.9V365.3L371.2,365.3z M385.8,308.8h-7.5c2.5,7.2,2.8,14.8,2.8,22.4h1.8C382.9,323.7,383.2,316,385.8,308.8L385.8,308.8z
		 M369.5,305.6h15.4v-1.7h-6.1v-18.1c0-3.2-0.8-5.7-2.5-7.6c-1.7-2-3.8-2.9-6.6-2.9c-4.5,0-8.2,2.8-11.4,8.5c-1-5.7-4-8.5-9.1-8.5
		c-4.2,0-7.9,2.7-11.2,8v-7.1h-15.2v1.7h5.9v26h-5.9v1.7h21.3v-1.7H338v-15.7c0.9-3,2.2-5.4,4-7.3c2.3-2.5,4.2-3.7,5.7-3.7
		c0.9,0,1.3,1.2,1.3,3.6v24.7h15.2v-1.6h-5.9v-16.2c1.3-3,2.9-5.4,4.7-7.5c1.8-2,3.5-3,4.8-3c1.1,0,1.6,1.2,1.6,3.6L369.5,305.6
		L369.5,305.6z M298.9,305.6h21.3v-1.7h-6.1v-26h2.6v-1.7h-17.8v1.7h5.9v26h-5.9V305.6L298.9,305.6z M313.6,249.2h-7.5
		c2.5,7.2,2.8,14.8,2.8,22.4h1.7C310.6,264,311,256.4,313.6,249.2L313.6,249.2z M292.2,304c2.2-1.6,3.3-3.8,3.3-6.5
		c0-3.6-2.9-7-8.7-10.1c-3.2-1.7-5.3-3-6.3-3.9s-1.5-2-1.5-3.3c0-2.3,1.3-3.5,3.8-3.5c2.8,0,5.5,1.9,8.2,5.6v3h1.8l-0.3-11.5H291
		v3.1c-2.4-1.1-5.2-1.6-8.4-1.6c-3.5,0-6.3,0.8-8.4,2.4c-2.2,1.6-3.3,3.7-3.3,6.3c0,3.5,2.3,6.5,7,9c4,2.2,6.6,3.9,7.8,4.9
		c1.2,1,1.8,2.2,1.8,3.5c0,2.2-1.4,3.3-4.1,3.3c-3.1,0-6.4-1.6-10-4.8v-3.4h-1.8V307h1.8v-2.7c3.3,1.4,6.7,2.1,10,2.1
		C287.1,306.4,290,305.6,292.2,304L292.2,304z M262.4,304c2.2-1.6,3.3-3.8,3.3-6.5c0-3.6-2.9-7-8.7-10.1c-3.2-1.7-5.3-3-6.3-3.9
		s-1.5-2-1.5-3.3c0-2.3,1.3-3.5,3.8-3.5c2.8,0,5.5,1.9,8.2,5.6v3h1.7l-0.3-11.5h-1.4v3.1c-2.4-1.1-5.2-1.6-8.5-1.6
		c-3.4,0-6.3,0.8-8.4,2.4c-2.2,1.6-3.3,3.7-3.3,6.3c0,3.5,2.3,6.5,7,9c4,2.2,6.6,3.9,7.8,4.9c1.2,1,1.8,2.2,1.8,3.5
		c0,2.2-1.4,3.3-4.1,3.3c-3.1,0-6.4-1.6-10-4.8v-3.4h-1.8V307h1.8v-2.7c3.3,1.4,6.7,2.1,10,2.1C257.2,306.4,260.2,305.6,262.4,304
		L262.4,304z M238.5,301.3l-1.3-0.9c-2.1,2.5-3.9,3.8-5.3,3.8c-1.1,0-1.7-1.7-1.7-5.2v-11.4c0-3-0.3-5.2-0.9-6.6
		c-1.7-3.8-5.8-5.7-12.4-5.7c-4.2,0-8.4,0.7-12.5,2.2l-0.4,5.6h1.3c2.5-4.1,6.7-6.1,12.9-6.1c0.8,0,1.7,0.2,2.7,0.5v7.7
		c-5.5-1.8-11.7-0.9-16.1,2.9c-4.4,3.8-6.6,11.4-1.8,15.9c1.8,1.6,4.1,2.5,7.1,2.5c3.9,0,7.5-1.7,10.9-5.2c1.2,3.5,3.7,5.2,7.7,5.2
		C232.6,306.4,235.8,304.7,238.5,301.3L238.5,301.3z M221,298.6c-1.7,2.5-5.2,5.8-8.4,5.8c-1.2,0-1.9-1.3-2.2-3.8
		c0.1,0.7-1-9.3,0.9-13.1c1.3-2.8,7.5-1.3,9.6-0.6L221,298.6L221,298.6z M201.8,338.4c-1.9-2.3-4.3-3.5-7.3-3.5
		c-4,0-7.6,2.6-10.9,7.9v-7h-15.2v1.7h5.9v26.1h-5.9v1.7h21.3v-1.7h-6.1v-16.7c3-6.6,6.1-10,9.3-10c1.4,0,2,1.5,2,4.6v23.8h15.3
		v-1.7h-5.7v-16.1C204.6,343.8,203.7,340.8,201.8,338.4L201.8,338.4z M180.8,297.7c7.6-8.3,11.4-19.3,11.4-33c0-11.9-3-21.9-9-30
		c-6-8-13.4-12.1-22.3-12.1c-8.4,0-15.2,2.7-20.6,8.2c-3.9,4-7.1,9.1-9.4,15.3c-2.3,6.2-3.5,12.6-3.5,19.1
		c0,12.7,3.9,23.4,11.7,32.1c2.7,3,6.2,5.6,10.5,7.6c-2.9,0.7-7,3.1-12.1,6.9l1.2,1.4c4.9-3.8,9.8-5.2,15.9-4.5
		c0.3,5.6,0.5,11.6,0.5,18.4c0,14.9-0.9,24.1-2.8,27.7c-1.6,3.2-4.1,5.7-7.4,7.5c-3.3,1.8-6.9,2.7-10.9,2.7c-5.8,0-9.6-1.8-11.5-5.5
		c-1.2-2.4-1.8-9-1.8-19.7v-54.6h7.7v-1.7h-26.2v1.7h7.7v54.5c0,5.8,0.5,10.2,1.4,13.2c0.9,2.9,2.6,5.6,5,7.8c4.4,4,10.3,6,17.7,6
		c5.7,0,10.5-1.4,14.4-4.3c3.9-2.9,6.4-6.8,7.4-11.8c0.6-2.9,1.1-11.2,1.5-24.8c0.2-6.1,0.4-11.4,0.7-16.3c4.5,1.3,8.5,3.8,12,7.8
		l-1.6,1.6l1,1.3c8.2-6.7,15.5-11.5,22.1-14.4l-0.6-1.8c-4.5,2-8.7,4.6-12.9,7.3c-4-3-7.2-4.8-9.6-5.7
		C173.6,303.6,177.7,301,180.8,297.7L180.8,297.7z M179.1,260.6c0,18.3-1,30.1-3,35.3s-4.8,7-10.1,8.5c-2.6-0.8-4.9-1.3-7.6-1.2
		c0.6-7.6,1.3-13.7,2.3-18h8.2v-1.7h-24.6v1.7h7.6c1.1,4.9,1.9,11,2.5,18.4c-0.8,0.1-1.4,0.2-2.3,0.3c-2.8-0.8-5.2-2.3-6.9-4.4
		c-3.2-4-4.9-14.3-4.9-31.1c0-4.8,0.2-10.6,0.7-17.4c0.4-6.8,0.9-11.1,1.3-13.1c1-4.3,3.1-7.6,6.3-10c3.2-2.4,7.2-3.6,12-3.6
		c7.3,0,12.4,2.8,15.2,8.5C178,237.2,179.1,246.4,179.1,260.6L179.1,260.6z M223.9,331.2c0-7.6,0.4-15.2,2.9-22.4h-7.5
		c2.5,7.2,2.8,14.8,2.8,22.4H223.9L223.9,331.2z M229.9,335.9h-17.7v1.7h5.9v26.1h-5.9v1.7h21.3v-1.7h-6.1v-26.1h2.5L229.9,335.9
		L229.9,335.9z M253.9,335.9h-19.8v1.7h4.8l15,29.5l4.7-10.5c3.9-8.8,7.1-15.1,9.7-19h4.9v-1.7h-14.5v1.7h3.7
		c0,5.3-1.6,10.9-4.5,16.7l-8.7-16.7h4.8L253.9,335.9L253.9,335.9z M280.2,339.5c-3.2,3.1-4.8,6.8-4.8,11.2c0,4.4,1.6,8.1,4.7,11
		c3.1,2.9,7.1,4.3,11.9,4.3c5.4,0,10.5-1.9,15.2-5.7v-3.7h-1c-3.8,5.1-8.5,7.7-14.1,7.7c-2.6,0-4.4-0.7-5.3-2.2s-1.3-4.5-1.3-8.9
		c0-1.9,0-3.4,0.1-4.7h20.7c-0.1-4.3-1.5-7.7-4-10.1c-2.5-2.4-5.9-3.6-10.3-3.6C287.4,334.9,283.5,336.4,280.2,339.5L280.2,339.5z
		 M285.7,346.9l0.1-1.8c0.2-3.2,0.9-5.4,1.9-6.6c1.1-1.3,2.9-1.9,5.4-1.9c5,0,7.5,3,7.5,8.9c0,0.5-0.1,1-0.1,1.4L285.7,346.9
		L285.7,346.9z M324.8,335.9h-15.2v1.7h5.9v26.1h-5.9v1.7h23.3v-1.7h-8.2v-10.3c0-4.5,0.4-7.7,1.1-9.6c1.3-3.3,3.1-5,5.4-5
		c2.6,0,4.5,1.9,5.6,5.6c0.3,1,0.5,2.5,0.5,4.6h1.8v-15.9h-1.8v3.4c-1.6-0.4-2.8-0.6-3.7-0.6c-3.5,0-6.5,2-8.8,6L324.8,335.9
		L324.8,335.9z M357.9,357.5c1.2,1,1.8,2.2,1.8,3.5c0,2.2-1.4,3.3-4.1,3.3c-3.1,0-6.4-1.6-10-4.8v-3.4h-1.8v10.5h1.8v-2.7
		c3.3,1.4,6.7,2.1,10,2.1c3.7,0,6.7-0.8,8.8-2.4c2.2-1.6,3.2-3.8,3.2-6.5c0-3.7-2.9-7-8.6-10.1c-3.2-1.7-5.3-3-6.3-3.9
		c-1-0.9-1.5-2-1.5-3.3c0-2.4,1.3-3.5,3.8-3.5c2.8,0,5.5,1.9,8.2,5.6v3h1.7l-0.3-11.6h-1.3v3.1c-2.4-1.1-5.2-1.6-8.4-1.6
		c-3.5,0-6.3,0.8-8.5,2.4c-2.2,1.6-3.3,3.7-3.3,6.3c0,3.4,2.3,6.4,7,9C354.1,354.9,356.7,356.5,357.9,357.5L357.9,357.5z"/>
	<polygon class="st3" points="473.9,214.5 492,214.5 492,232.6 473.9,232.6 	"/>
</g>
</svg>
